<?xml version="1.0" encoding="UTF-8" standalone="no"?>
<!DOCTYPE svg PUBLIC "-//W3C//DTD SVG 1.1//EN"
 "http://www.w3.org/Graphics/SVG/1.1/DTD/svg11.dtd">
<!-- Generated by graphviz version 2.44.1 (20200629.0846)
 -->
<!-- Title: dependencies Pages: 1 -->
<svg width="504pt" height="211pt"
 viewBox="0.00 0.00 504.00 211.00" xmlns="http://www.w3.org/2000/svg" xmlns:xlink="http://www.w3.org/1999/xlink">
<g id="graph0" class="graph" transform="scale(1 1) rotate(0) translate(4 207)">
<title>dependencies</title>
<polygon fill="white" stroke="transparent" points="-4,4 -4,-207 500,-207 500,4 -4,4"/>
<text text-anchor="start" x="227.01" y="-42.4" font-family="sans-serif" font-weight="bold" font-size="14.00">Legend</text>
<polygon fill="#ffffb3" stroke="transparent" points="14,-10 14,-30 34,-30 34,-10 14,-10"/>
<text text-anchor="start" x="37.63" y="-15.4" font-family="sans-serif" font-size="14.00"> &#160;Declarations</text>
<polygon fill="#8dd3c7" stroke="transparent" points="127,-10 127,-30 147,-30 147,-10 127,-10"/>
<text text-anchor="start" x="150.73" y="-15.4" font-family="sans-serif" font-size="14.00"> &#160;Module</text>
<polygon fill="#80b1d3" stroke="transparent" points="213,-10 213,-30 233,-30 233,-10 213,-10"/>
<text text-anchor="start" x="236.78" y="-15.4" font-family="sans-serif" font-size="14.00"> &#160;Bootstrap</text>
<polygon fill="#fdb462" stroke="transparent" points="310,-10 310,-30 330,-30 330,-10 310,-10"/>
<text text-anchor="start" x="333.67" y="-15.4" font-family="sans-serif" font-size="14.00"> &#160;Providers</text>
<polygon fill="#fb8072" stroke="transparent" points="406,-10 406,-30 426,-30 426,-10 406,-10"/>
<text text-anchor="start" x="429.73" y="-15.4" font-family="sans-serif" font-size="14.00"> &#160;Exports</text>
<g id="clust1" class="cluster">
<title>cluster_DetailRestaurantPageModule</title>
<polygon fill="none" stroke="black" stroke-dasharray="1,5" points="38,-70 38,-195 458,-195 458,-70 38,-70"/>
</g>
<g id="clust2" class="cluster">
<title>cluster_DetailRestaurantPageModule_declarations</title>
<polygon fill="none" stroke="black" points="296,-78 296,-130 450,-130 450,-78 296,-78"/>
</g>
<g id="clust4" class="cluster">
<title>cluster_DetailRestaurantPageModule_imports</title>
<polygon fill="none" stroke="black" points="46,-78 46,-130 288,-130 288,-78 46,-78"/>
</g>
<!-- DetailRestaurantPage -->
<g id="node1" class="node">
<title>DetailRestaurantPage</title>
<polygon fill="#ffffb3" stroke="black" points="441.79,-122 304.21,-122 304.21,-86 441.79,-86 441.79,-122"/>
<text text-anchor="middle" x="373" y="-99.8" font-family="Times,serif" font-size="14.00">DetailRestaurantPage</text>
</g>
<!-- DetailRestaurantPageModule -->
<g id="node2" class="node">
<title>DetailRestaurantPageModule</title>
<polygon fill="#8dd3c7" stroke="black" points="353.34,-187 350.34,-191 329.34,-191 326.34,-187 172.66,-187 172.66,-151 353.34,-151 353.34,-187"/>
<text text-anchor="middle" x="263" y="-164.8" font-family="Times,serif" font-size="14.00">DetailRestaurantPageModule</text>
</g>
<!-- DetailRestaurantPage&#45;&gt;DetailRestaurantPageModule -->
<g id="edge1" class="edge">
<title>DetailRestaurantPage&#45;&gt;DetailRestaurantPageModule</title>
<path fill="none" stroke="black" d="M328.89,-122.11C328.89,-122.11 328.89,-140.99 328.89,-140.99"/>
<polygon fill="black" stroke="black" points="325.39,-140.99 328.89,-150.99 332.39,-140.99 325.39,-140.99"/>
</g>
<!-- DetailRestaurantPageRoutingModule -->
<g id="node3" class="node">
<title>DetailRestaurantPageRoutingModule</title>
<polygon fill="#8dd3c7" stroke="black" points="279.95,-122 276.95,-126 255.95,-126 252.95,-122 54.05,-122 54.05,-86 279.95,-86 279.95,-122"/>
<text text-anchor="middle" x="167" y="-99.8" font-family="Times,serif" font-size="14.00">DetailRestaurantPageRoutingModule</text>
</g>
<!-- DetailRestaurantPageRoutingModule&#45;&gt;DetailRestaurantPageModule -->
<g id="edge2" class="edge">
<title>DetailRestaurantPageRoutingModule&#45;&gt;DetailRestaurantPageModule</title>
<path fill="none" stroke="black" d="M226.28,-122.11C226.28,-122.11 226.28,-140.99 226.28,-140.99"/>
<polygon fill="black" stroke="black" points="222.78,-140.99 226.28,-150.99 229.78,-140.99 222.78,-140.99"/>
</g>
</g>
</svg>
