<?xml version="1.0" encoding="UTF-8" standalone="no"?>
<!DOCTYPE svg PUBLIC "-//W3C//DTD SVG 1.1//EN"
 "http://www.w3.org/Graphics/SVG/1.1/DTD/svg11.dtd">
<!-- Generated by graphviz version 2.44.1 (20200629.0846)
 -->
<!-- Title: dependencies Pages: 1 -->
<svg width="504pt" height="211pt"
 viewBox="0.00 0.00 504.00 211.00" xmlns="http://www.w3.org/2000/svg" xmlns:xlink="http://www.w3.org/1999/xlink">
<g id="graph0" class="graph" transform="scale(1 1) rotate(0) translate(4 207)">
<title>dependencies</title>
<polygon fill="white" stroke="transparent" points="-4,4 -4,-207 500,-207 500,4 -4,4"/>
<text text-anchor="start" x="227.01" y="-42.4" font-family="sans-serif" font-weight="bold" font-size="14.00">Legend</text>
<polygon fill="#ffffb3" stroke="transparent" points="14,-10 14,-30 34,-30 34,-10 14,-10"/>
<text text-anchor="start" x="37.63" y="-15.4" font-family="sans-serif" font-size="14.00"> &#160;Declarations</text>
<polygon fill="#8dd3c7" stroke="transparent" points="127,-10 127,-30 147,-30 147,-10 127,-10"/>
<text text-anchor="start" x="150.73" y="-15.4" font-family="sans-serif" font-size="14.00"> &#160;Module</text>
<polygon fill="#80b1d3" stroke="transparent" points="213,-10 213,-30 233,-30 233,-10 213,-10"/>
<text text-anchor="start" x="236.78" y="-15.4" font-family="sans-serif" font-size="14.00"> &#160;Bootstrap</text>
<polygon fill="#fdb462" stroke="transparent" points="310,-10 310,-30 330,-30 330,-10 310,-10"/>
<text text-anchor="start" x="333.67" y="-15.4" font-family="sans-serif" font-size="14.00"> &#160;Providers</text>
<polygon fill="#fb8072" stroke="transparent" points="406,-10 406,-30 426,-30 426,-10 406,-10"/>
<text text-anchor="start" x="429.73" y="-15.4" font-family="sans-serif" font-size="14.00"> &#160;Exports</text>
<g id="clust1" class="cluster">
<title>cluster_VerifyEmailPageModule</title>
<polygon fill="none" stroke="black" stroke-dasharray="1,5" points="62,-70 62,-195 434,-195 434,-70 62,-70"/>
</g>
<g id="clust4" class="cluster">
<title>cluster_VerifyEmailPageModule_imports</title>
<polygon fill="none" stroke="black" points="208,-78 208,-130 426,-130 426,-78 208,-78"/>
</g>
<g id="clust2" class="cluster">
<title>cluster_VerifyEmailPageModule_declarations</title>
<polygon fill="none" stroke="black" points="70,-78 70,-130 200,-130 200,-78 70,-78"/>
</g>
<!-- VerifyEmailPage -->
<g id="node1" class="node">
<title>VerifyEmailPage</title>
<polygon fill="#ffffb3" stroke="black" points="191.68,-122 78.32,-122 78.32,-86 191.68,-86 191.68,-122"/>
<text text-anchor="middle" x="135" y="-99.8" font-family="Times,serif" font-size="14.00">VerifyEmailPage</text>
</g>
<!-- VerifyEmailPageModule -->
<g id="node2" class="node">
<title>VerifyEmailPageModule</title>
<polygon fill="#8dd3c7" stroke="black" points="310.23,-187 307.23,-191 286.23,-191 283.23,-187 153.77,-187 153.77,-151 310.23,-151 310.23,-187"/>
<text text-anchor="middle" x="232" y="-164.8" font-family="Times,serif" font-size="14.00">VerifyEmailPageModule</text>
</g>
<!-- VerifyEmailPage&#45;&gt;VerifyEmailPageModule -->
<g id="edge1" class="edge">
<title>VerifyEmailPage&#45;&gt;VerifyEmailPageModule</title>
<path fill="none" stroke="black" d="M172.61,-122.11C172.61,-122.11 172.61,-140.99 172.61,-140.99"/>
<polygon fill="black" stroke="black" points="169.11,-140.99 172.61,-150.99 176.11,-140.99 169.11,-140.99"/>
</g>
<!-- VerifyEmailPageRoutingModule -->
<g id="node3" class="node">
<title>VerifyEmailPageRoutingModule</title>
<polygon fill="#8dd3c7" stroke="black" points="417.85,-122 414.85,-126 393.85,-126 390.85,-122 216.15,-122 216.15,-86 417.85,-86 417.85,-122"/>
<text text-anchor="middle" x="317" y="-99.8" font-family="Times,serif" font-size="14.00">VerifyEmailPageRoutingModule</text>
</g>
<!-- VerifyEmailPageRoutingModule&#45;&gt;VerifyEmailPageModule -->
<g id="edge2" class="edge">
<title>VerifyEmailPageRoutingModule&#45;&gt;VerifyEmailPageModule</title>
<path fill="none" stroke="black" d="M263.22,-122.11C263.22,-122.11 263.22,-140.99 263.22,-140.99"/>
<polygon fill="black" stroke="black" points="259.72,-140.99 263.22,-150.99 266.72,-140.99 259.72,-140.99"/>
</g>
</g>
</svg>
