<?xml version="1.0" encoding="UTF-8" standalone="no"?>
<!DOCTYPE svg PUBLIC "-//W3C//DTD SVG 1.1//EN"
 "http://www.w3.org/Graphics/SVG/1.1/DTD/svg11.dtd">
<!-- Generated by graphviz version 2.44.1 (20200629.0846)
 -->
<!-- Title: dependencies Pages: 1 -->
<svg width="504pt" height="284pt"
 viewBox="0.00 0.00 504.00 284.00" xmlns="http://www.w3.org/2000/svg" xmlns:xlink="http://www.w3.org/1999/xlink">
<g id="graph0" class="graph" transform="scale(1 1) rotate(0) translate(4 280)">
<title>dependencies</title>
<polygon fill="white" stroke="transparent" points="-4,4 -4,-280 500,-280 500,4 -4,4"/>
<text text-anchor="start" x="227.01" y="-42.4" font-family="sans-serif" font-weight="bold" font-size="14.00">Legend</text>
<polygon fill="#ffffb3" stroke="transparent" points="14,-10 14,-30 34,-30 34,-10 14,-10"/>
<text text-anchor="start" x="37.63" y="-15.4" font-family="sans-serif" font-size="14.00"> &#160;Declarations</text>
<polygon fill="#8dd3c7" stroke="transparent" points="127,-10 127,-30 147,-30 147,-10 127,-10"/>
<text text-anchor="start" x="150.73" y="-15.4" font-family="sans-serif" font-size="14.00"> &#160;Module</text>
<polygon fill="#80b1d3" stroke="transparent" points="213,-10 213,-30 233,-30 233,-10 213,-10"/>
<text text-anchor="start" x="236.78" y="-15.4" font-family="sans-serif" font-size="14.00"> &#160;Bootstrap</text>
<polygon fill="#fdb462" stroke="transparent" points="310,-10 310,-30 330,-30 330,-10 310,-10"/>
<text text-anchor="start" x="333.67" y="-15.4" font-family="sans-serif" font-size="14.00"> &#160;Providers</text>
<polygon fill="#fb8072" stroke="transparent" points="406,-10 406,-30 426,-30 426,-10 406,-10"/>
<text text-anchor="start" x="429.73" y="-15.4" font-family="sans-serif" font-size="14.00"> &#160;Exports</text>
<g id="clust1" class="cluster">
<title>cluster_HeaderPageModule</title>
<polygon fill="none" stroke="black" stroke-dasharray="1,5" points="92,-70 92,-268 404,-268 404,-70 92,-70"/>
</g>
<g id="clust5" class="cluster">
<title>cluster_HeaderPageModule_exports</title>
<polygon fill="none" stroke="black" points="211,-208 211,-260 315,-260 315,-208 211,-208"/>
</g>
<g id="clust2" class="cluster">
<title>cluster_HeaderPageModule_declarations</title>
<polygon fill="none" stroke="black" points="296,-78 296,-130 396,-130 396,-78 296,-78"/>
</g>
<g id="clust4" class="cluster">
<title>cluster_HeaderPageModule_imports</title>
<polygon fill="none" stroke="black" points="100,-78 100,-130 288,-130 288,-78 100,-78"/>
</g>
<!-- HeaderPage -->
<g id="node1" class="node">
<title>HeaderPage</title>
<polygon fill="#ffffb3" stroke="black" points="387.62,-122 304.38,-122 304.38,-86 387.62,-86 387.62,-122"/>
<text text-anchor="middle" x="346" y="-99.8" font-family="Times,serif" font-size="14.00">HeaderPage</text>
</g>
<!-- HeaderPageModule -->
<g id="node2" class="node">
<title>HeaderPageModule</title>
<polygon fill="#8dd3c7" stroke="black" points="326.67,-187 323.67,-191 302.67,-191 299.67,-187 199.33,-187 199.33,-151 326.67,-151 326.67,-187"/>
<text text-anchor="middle" x="263" y="-164.8" font-family="Times,serif" font-size="14.00">HeaderPageModule</text>
</g>
<!-- HeaderPage&#45;&gt;HeaderPageModule -->
<g id="edge1" class="edge">
<title>HeaderPage&#45;&gt;HeaderPageModule</title>
<path fill="none" stroke="black" d="M315.39,-122.11C315.39,-122.11 315.39,-140.99 315.39,-140.99"/>
<polygon fill="black" stroke="black" points="311.89,-140.99 315.39,-150.99 318.89,-140.99 311.89,-140.99"/>
</g>
<!-- HeaderPage  -->
<g id="node4" class="node">
<title>HeaderPage </title>
<polygon fill="#fb8072" stroke="black" points="306.62,-252 219.38,-252 219.38,-216 306.62,-216 306.62,-252"/>
<text text-anchor="middle" x="263" y="-229.8" font-family="Times,serif" font-size="14.00">HeaderPage </text>
</g>
<!-- HeaderPageModule&#45;&gt;HeaderPage  -->
<g id="edge3" class="edge">
<title>HeaderPageModule&#45;&gt;HeaderPage </title>
<path fill="none" stroke="black" stroke-dasharray="5,2" d="M263,-187.11C263,-187.11 263,-205.99 263,-205.99"/>
<polygon fill="black" stroke="black" points="259.5,-205.99 263,-215.99 266.5,-205.99 259.5,-205.99"/>
</g>
<!-- HeaderPageRoutingModule -->
<g id="node3" class="node">
<title>HeaderPageRoutingModule</title>
<polygon fill="#8dd3c7" stroke="black" points="280.29,-122 277.29,-126 256.29,-126 253.29,-122 107.71,-122 107.71,-86 280.29,-86 280.29,-122"/>
<text text-anchor="middle" x="194" y="-99.8" font-family="Times,serif" font-size="14.00">HeaderPageRoutingModule</text>
</g>
<!-- HeaderPageRoutingModule&#45;&gt;HeaderPageModule -->
<g id="edge2" class="edge">
<title>HeaderPageRoutingModule&#45;&gt;HeaderPageModule</title>
<path fill="none" stroke="black" d="M239.78,-122.11C239.78,-122.11 239.78,-140.99 239.78,-140.99"/>
<polygon fill="black" stroke="black" points="236.28,-140.99 239.78,-150.99 243.28,-140.99 236.28,-140.99"/>
</g>
</g>
</svg>
