<?xml version="1.0" encoding="UTF-8" standalone="no"?>
<!DOCTYPE svg PUBLIC "-//W3C//DTD SVG 1.1//EN"
 "http://www.w3.org/Graphics/SVG/1.1/DTD/svg11.dtd">
<!-- Generated by graphviz version 2.44.1 (20200629.0846)
 -->
<!-- Title: dependencies Pages: 1 -->
<svg width="531pt" height="211pt"
 viewBox="0.00 0.00 531.00 211.00" xmlns="http://www.w3.org/2000/svg" xmlns:xlink="http://www.w3.org/1999/xlink">
<g id="graph0" class="graph" transform="scale(1 1) rotate(0) translate(4 207)">
<title>dependencies</title>
<polygon fill="white" stroke="transparent" points="-4,4 -4,-207 527,-207 527,4 -4,4"/>
<text text-anchor="start" x="240.51" y="-42.4" font-family="sans-serif" font-weight="bold" font-size="14.00">Legend</text>
<polygon fill="#ffffb3" stroke="transparent" points="27.5,-10 27.5,-30 47.5,-30 47.5,-10 27.5,-10"/>
<text text-anchor="start" x="51.13" y="-15.4" font-family="sans-serif" font-size="14.00"> &#160;Declarations</text>
<polygon fill="#8dd3c7" stroke="transparent" points="140.5,-10 140.5,-30 160.5,-30 160.5,-10 140.5,-10"/>
<text text-anchor="start" x="164.23" y="-15.4" font-family="sans-serif" font-size="14.00"> &#160;Module</text>
<polygon fill="#80b1d3" stroke="transparent" points="226.5,-10 226.5,-30 246.5,-30 246.5,-10 226.5,-10"/>
<text text-anchor="start" x="250.28" y="-15.4" font-family="sans-serif" font-size="14.00"> &#160;Bootstrap</text>
<polygon fill="#fdb462" stroke="transparent" points="323.5,-10 323.5,-30 343.5,-30 343.5,-10 323.5,-10"/>
<text text-anchor="start" x="347.17" y="-15.4" font-family="sans-serif" font-size="14.00"> &#160;Providers</text>
<polygon fill="#fb8072" stroke="transparent" points="419.5,-10 419.5,-30 439.5,-30 439.5,-10 419.5,-10"/>
<text text-anchor="start" x="443.23" y="-15.4" font-family="sans-serif" font-size="14.00"> &#160;Exports</text>
<g id="clust1" class="cluster">
<title>cluster_ProductListPageModule</title>
<polygon fill="none" stroke="black" stroke-dasharray="1,5" points="8,-70 8,-195 515,-195 515,-70 8,-70"/>
</g>
<g id="clust4" class="cluster">
<title>cluster_ProductListPageModule_imports</title>
<polygon fill="none" stroke="black" points="148,-78 148,-130 507,-130 507,-78 148,-78"/>
</g>
<g id="clust2" class="cluster">
<title>cluster_ProductListPageModule_declarations</title>
<polygon fill="none" stroke="black" points="16,-78 16,-130 140,-130 140,-78 16,-78"/>
</g>
<!-- ProductListPage -->
<g id="node1" class="node">
<title>ProductListPage</title>
<polygon fill="#ffffb3" stroke="black" points="132.04,-122 23.96,-122 23.96,-86 132.04,-86 132.04,-122"/>
<text text-anchor="middle" x="78" y="-99.8" font-family="Times,serif" font-size="14.00">ProductListPage</text>
</g>
<!-- ProductListPageModule -->
<g id="node2" class="node">
<title>ProductListPageModule</title>
<polygon fill="#8dd3c7" stroke="black" points="331.09,-187 328.09,-191 307.09,-191 304.09,-187 178.91,-187 178.91,-151 331.09,-151 331.09,-187"/>
<text text-anchor="middle" x="255" y="-164.8" font-family="Times,serif" font-size="14.00">ProductListPageModule</text>
</g>
<!-- ProductListPage&#45;&gt;ProductListPageModule -->
<g id="edge1" class="edge">
<title>ProductListPage&#45;&gt;ProductListPageModule</title>
<path fill="none" stroke="black" d="M78,-122.11C78,-141.34 78,-169 78,-169 78,-169 168.91,-169 168.91,-169"/>
<polygon fill="black" stroke="black" points="168.91,-172.5 178.91,-169 168.91,-165.5 168.91,-172.5"/>
</g>
<!-- HeaderPageModule -->
<g id="node3" class="node">
<title>HeaderPageModule</title>
<polygon fill="#8dd3c7" stroke="black" points="498.67,-122 495.67,-126 474.67,-126 471.67,-122 371.33,-122 371.33,-86 498.67,-86 498.67,-122"/>
<text text-anchor="middle" x="435" y="-99.8" font-family="Times,serif" font-size="14.00">HeaderPageModule</text>
</g>
<!-- HeaderPageModule&#45;&gt;ProductListPageModule -->
<g id="edge2" class="edge">
<title>HeaderPageModule&#45;&gt;ProductListPageModule</title>
<path fill="none" stroke="black" d="M435,-122.11C435,-141.34 435,-169 435,-169 435,-169 341.08,-169 341.08,-169"/>
<polygon fill="black" stroke="black" points="341.08,-165.5 331.08,-169 341.08,-172.5 341.08,-165.5"/>
</g>
<!-- ProductListPageRoutingModule -->
<g id="node4" class="node">
<title>ProductListPageRoutingModule</title>
<polygon fill="#8dd3c7" stroke="black" points="353.71,-122 350.71,-126 329.71,-126 326.71,-122 156.29,-122 156.29,-86 353.71,-86 353.71,-122"/>
<text text-anchor="middle" x="255" y="-99.8" font-family="Times,serif" font-size="14.00">ProductListPageRoutingModule</text>
</g>
<!-- ProductListPageRoutingModule&#45;&gt;ProductListPageModule -->
<g id="edge3" class="edge">
<title>ProductListPageRoutingModule&#45;&gt;ProductListPageModule</title>
<path fill="none" stroke="black" d="M255,-122.11C255,-122.11 255,-140.99 255,-140.99"/>
<polygon fill="black" stroke="black" points="251.5,-140.99 255,-150.99 258.5,-140.99 251.5,-140.99"/>
</g>
</g>
</svg>
