<?xml version="1.0" encoding="UTF-8" standalone="no"?>
<!DOCTYPE svg PUBLIC "-//W3C//DTD SVG 1.1//EN"
 "http://www.w3.org/Graphics/SVG/1.1/DTD/svg11.dtd">
<!-- Generated by graphviz version 2.44.1 (20200629.0846)
 -->
<!-- Title: dependencies Pages: 1 -->
<svg width="504pt" height="211pt"
 viewBox="0.00 0.00 504.00 211.00" xmlns="http://www.w3.org/2000/svg" xmlns:xlink="http://www.w3.org/1999/xlink">
<g id="graph0" class="graph" transform="scale(1 1) rotate(0) translate(4 207)">
<title>dependencies</title>
<polygon fill="white" stroke="transparent" points="-4,4 -4,-207 500,-207 500,4 -4,4"/>
<text text-anchor="start" x="227.01" y="-42.4" font-family="sans-serif" font-weight="bold" font-size="14.00">Legend</text>
<polygon fill="#ffffb3" stroke="transparent" points="14,-10 14,-30 34,-30 34,-10 14,-10"/>
<text text-anchor="start" x="37.63" y="-15.4" font-family="sans-serif" font-size="14.00"> &#160;Declarations</text>
<polygon fill="#8dd3c7" stroke="transparent" points="127,-10 127,-30 147,-30 147,-10 127,-10"/>
<text text-anchor="start" x="150.73" y="-15.4" font-family="sans-serif" font-size="14.00"> &#160;Module</text>
<polygon fill="#80b1d3" stroke="transparent" points="213,-10 213,-30 233,-30 233,-10 213,-10"/>
<text text-anchor="start" x="236.78" y="-15.4" font-family="sans-serif" font-size="14.00"> &#160;Bootstrap</text>
<polygon fill="#fdb462" stroke="transparent" points="310,-10 310,-30 330,-30 330,-10 310,-10"/>
<text text-anchor="start" x="333.67" y="-15.4" font-family="sans-serif" font-size="14.00"> &#160;Providers</text>
<polygon fill="#fb8072" stroke="transparent" points="406,-10 406,-30 426,-30 426,-10 406,-10"/>
<text text-anchor="start" x="429.73" y="-15.4" font-family="sans-serif" font-size="14.00"> &#160;Exports</text>
<g id="clust1" class="cluster">
<title>cluster_CartModalPageModule</title>
<polygon fill="none" stroke="black" stroke-dasharray="1,5" points="72,-70 72,-195 424,-195 424,-70 72,-70"/>
</g>
<g id="clust4" class="cluster">
<title>cluster_CartModalPageModule_imports</title>
<polygon fill="none" stroke="black" points="208,-78 208,-130 416,-130 416,-78 208,-78"/>
</g>
<g id="clust2" class="cluster">
<title>cluster_CartModalPageModule_declarations</title>
<polygon fill="none" stroke="black" points="80,-78 80,-130 200,-130 200,-78 80,-78"/>
</g>
<!-- CartModalPage -->
<g id="node1" class="node">
<title>CartModalPage</title>
<polygon fill="#ffffb3" stroke="black" points="191.86,-122 88.14,-122 88.14,-86 191.86,-86 191.86,-122"/>
<text text-anchor="middle" x="140" y="-99.8" font-family="Times,serif" font-size="14.00">CartModalPage</text>
</g>
<!-- CartModalPageModule -->
<g id="node2" class="node">
<title>CartModalPageModule</title>
<polygon fill="#8dd3c7" stroke="black" points="306.91,-187 303.91,-191 282.91,-191 279.91,-187 159.09,-187 159.09,-151 306.91,-151 306.91,-187"/>
<text text-anchor="middle" x="233" y="-164.8" font-family="Times,serif" font-size="14.00">CartModalPageModule</text>
</g>
<!-- CartModalPage&#45;&gt;CartModalPageModule -->
<g id="edge1" class="edge">
<title>CartModalPage&#45;&gt;CartModalPageModule</title>
<path fill="none" stroke="black" d="M175.61,-122.11C175.61,-122.11 175.61,-140.99 175.61,-140.99"/>
<polygon fill="black" stroke="black" points="172.11,-140.99 175.61,-150.99 179.11,-140.99 172.11,-140.99"/>
</g>
<!-- CartModalPageRoutingModule -->
<g id="node3" class="node">
<title>CartModalPageRoutingModule</title>
<polygon fill="#8dd3c7" stroke="black" points="408.03,-122 405.03,-126 384.03,-126 381.03,-122 215.97,-122 215.97,-86 408.03,-86 408.03,-122"/>
<text text-anchor="middle" x="312" y="-99.8" font-family="Times,serif" font-size="14.00">CartModalPageRoutingModule</text>
</g>
<!-- CartModalPageRoutingModule&#45;&gt;CartModalPageModule -->
<g id="edge2" class="edge">
<title>CartModalPageRoutingModule&#45;&gt;CartModalPageModule</title>
<path fill="none" stroke="black" d="M261.22,-122.11C261.22,-122.11 261.22,-140.99 261.22,-140.99"/>
<polygon fill="black" stroke="black" points="257.72,-140.99 261.22,-150.99 264.72,-140.99 257.72,-140.99"/>
</g>
</g>
</svg>
