<?xml version="1.0" encoding="UTF-8" standalone="no"?>
<!DOCTYPE svg PUBLIC "-//W3C//DTD SVG 1.1//EN"
 "http://www.w3.org/Graphics/SVG/1.1/DTD/svg11.dtd">
<!-- Generated by graphviz version 2.44.1 (20200629.0846)
 -->
<!-- Title: dependencies Pages: 1 -->
<svg width="5874pt" height="360pt"
 viewBox="0.00 0.00 5874.00 360.00" xmlns="http://www.w3.org/2000/svg" xmlns:xlink="http://www.w3.org/1999/xlink">
<g id="graph0" class="graph" transform="scale(1 1) rotate(0) translate(4 356)">
<title>dependencies</title>
<polygon fill="white" stroke="transparent" points="-4,4 -4,-356 5870,-356 5870,4 -4,4"/>
<text text-anchor="start" x="2912.01" y="-42.4" font-family="sans-serif" font-weight="bold" font-size="14.00">Legend</text>
<polygon fill="#ffffb3" stroke="transparent" points="2699,-10 2699,-30 2719,-30 2719,-10 2699,-10"/>
<text text-anchor="start" x="2722.63" y="-15.4" font-family="sans-serif" font-size="14.00"> &#160;Declarations</text>
<polygon fill="#8dd3c7" stroke="transparent" points="2812,-10 2812,-30 2832,-30 2832,-10 2812,-10"/>
<text text-anchor="start" x="2835.73" y="-15.4" font-family="sans-serif" font-size="14.00"> &#160;Module</text>
<polygon fill="#80b1d3" stroke="transparent" points="2898,-10 2898,-30 2918,-30 2918,-10 2898,-10"/>
<text text-anchor="start" x="2921.78" y="-15.4" font-family="sans-serif" font-size="14.00"> &#160;Bootstrap</text>
<polygon fill="#fdb462" stroke="transparent" points="2995,-10 2995,-30 3015,-30 3015,-10 2995,-10"/>
<text text-anchor="start" x="3018.67" y="-15.4" font-family="sans-serif" font-size="14.00"> &#160;Providers</text>
<polygon fill="#fb8072" stroke="transparent" points="3091,-10 3091,-30 3111,-30 3111,-10 3091,-10"/>
<text text-anchor="start" x="3114.73" y="-15.4" font-family="sans-serif" font-size="14.00"> &#160;Exports</text>
<g id="clust1" class="cluster">
<title>cluster_AppModule</title>
<polygon fill="none" stroke="black" stroke-dasharray="1,5" points="650,-146 650,-344 1086,-344 1086,-146 650,-146"/>
</g>
<g id="clust2" class="cluster">
<title>cluster_AppModule_declarations</title>
<polygon fill="none" stroke="black" points="658,-154 658,-206 780,-206 780,-154 658,-154"/>
</g>
<g id="clust4" class="cluster">
<title>cluster_AppModule_imports</title>
<polygon fill="none" stroke="black" points="788,-154 788,-206 1078,-206 1078,-154 788,-154"/>
</g>
<g id="clust6" class="cluster">
<title>cluster_AppModule_bootstrap</title>
<polygon fill="none" stroke="black" points="798,-284 798,-336 922,-336 922,-284 798,-284"/>
</g>
<g id="clust14" class="cluster">
<title>cluster_BateauPageModule</title>
<polygon fill="none" stroke="black" stroke-dasharray="1,5" points="8,-146 8,-271 316,-271 316,-146 8,-146"/>
</g>
<g id="clust15" class="cluster">
<title>cluster_BateauPageModule_declarations</title>
<polygon fill="none" stroke="black" points="210,-154 210,-206 308,-206 308,-154 210,-154"/>
</g>
<g id="clust17" class="cluster">
<title>cluster_BateauPageModule_imports</title>
<polygon fill="none" stroke="black" points="16,-154 16,-206 202,-206 202,-154 16,-154"/>
</g>
<g id="clust27" class="cluster">
<title>cluster_CartModalPageModule</title>
<polygon fill="none" stroke="black" stroke-dasharray="1,5" points="2456,-70 2456,-206 2808,-206 2808,-70 2456,-70"/>
</g>
<g id="clust28" class="cluster">
<title>cluster_CartModalPageModule_declarations</title>
<polygon fill="none" stroke="black" points="2680,-78 2680,-130 2800,-130 2800,-78 2680,-78"/>
</g>
<g id="clust30" class="cluster">
<title>cluster_CartModalPageModule_imports</title>
<polygon fill="none" stroke="black" points="2464,-78 2464,-130 2672,-130 2672,-78 2464,-78"/>
</g>
<g id="clust40" class="cluster">
<title>cluster_ContactPageModule</title>
<polygon fill="none" stroke="black" stroke-dasharray="1,5" points="324,-146 324,-271 642,-271 642,-146 324,-146"/>
</g>
<g id="clust41" class="cluster">
<title>cluster_ContactPageModule_declarations</title>
<polygon fill="none" stroke="black" points="532,-154 532,-206 634,-206 634,-154 532,-154"/>
</g>
<g id="clust43" class="cluster">
<title>cluster_ContactPageModule_imports</title>
<polygon fill="none" stroke="black" points="332,-154 332,-206 524,-206 524,-154 332,-154"/>
</g>
<g id="clust53" class="cluster">
<title>cluster_DetailBateauPageModule</title>
<polygon fill="none" stroke="black" stroke-dasharray="1,5" points="2816,-70 2816,-206 3192,-206 3192,-70 2816,-70"/>
</g>
<g id="clust54" class="cluster">
<title>cluster_DetailBateauPageModule_declarations</title>
<polygon fill="none" stroke="black" points="3052,-78 3052,-130 3184,-130 3184,-78 3052,-78"/>
</g>
<g id="clust56" class="cluster">
<title>cluster_DetailBateauPageModule_imports</title>
<polygon fill="none" stroke="black" points="2824,-78 2824,-130 3044,-130 3044,-78 2824,-78"/>
</g>
<g id="clust66" class="cluster">
<title>cluster_DetailRecettePageModule</title>
<polygon fill="none" stroke="black" stroke-dasharray="1,5" points="3200,-70 3200,-206 3584,-206 3584,-70 3200,-70"/>
</g>
<g id="clust67" class="cluster">
<title>cluster_DetailRecettePageModule_declarations</title>
<polygon fill="none" stroke="black" points="3440,-78 3440,-130 3576,-130 3576,-78 3440,-78"/>
</g>
<g id="clust69" class="cluster">
<title>cluster_DetailRecettePageModule_imports</title>
<polygon fill="none" stroke="black" points="3208,-78 3208,-130 3432,-130 3432,-78 3208,-78"/>
</g>
<g id="clust79" class="cluster">
<title>cluster_DetailRestaurantPageModule</title>
<polygon fill="none" stroke="black" stroke-dasharray="1,5" points="3592,-70 3592,-206 4012,-206 4012,-70 3592,-70"/>
</g>
<g id="clust80" class="cluster">
<title>cluster_DetailRestaurantPageModule_declarations</title>
<polygon fill="none" stroke="black" points="3850,-78 3850,-130 4004,-130 4004,-78 3850,-78"/>
</g>
<g id="clust82" class="cluster">
<title>cluster_DetailRestaurantPageModule_imports</title>
<polygon fill="none" stroke="black" points="3600,-78 3600,-130 3842,-130 3842,-78 3600,-78"/>
</g>
<g id="clust92" class="cluster">
<title>cluster_HeaderPageModule</title>
<polygon fill="none" stroke="black" stroke-dasharray="1,5" points="792,-70 792,-138 1216,-138 1216,-70 792,-70"/>
</g>
<g id="clust93" class="cluster">
<title>cluster_HeaderPageModule_declarations</title>
<polygon fill="none" stroke="black" points="1108,-78 1108,-130 1208,-130 1208,-78 1108,-78"/>
</g>
<g id="clust95" class="cluster">
<title>cluster_HeaderPageModule_imports</title>
<polygon fill="none" stroke="black" points="912,-78 912,-130 1100,-130 1100,-78 912,-78"/>
</g>
<g id="clust96" class="cluster">
<title>cluster_HeaderPageModule_exports</title>
<polygon fill="none" stroke="black" points="800,-78 800,-130 904,-130 904,-78 800,-78"/>
</g>
<g id="clust105" class="cluster">
<title>cluster_HomePageModule</title>
<polygon fill="none" stroke="black" stroke-dasharray="1,5" points="1094,-146 1094,-271 1394,-271 1394,-146 1094,-146"/>
</g>
<g id="clust106" class="cluster">
<title>cluster_HomePageModule_declarations</title>
<polygon fill="none" stroke="black" points="1292,-154 1292,-206 1386,-206 1386,-154 1292,-154"/>
</g>
<g id="clust108" class="cluster">
<title>cluster_HomePageModule_imports</title>
<polygon fill="none" stroke="black" points="1102,-154 1102,-206 1284,-206 1284,-154 1102,-154"/>
</g>
<g id="clust118" class="cluster">
<title>cluster_IntrouvablePageModule</title>
<polygon fill="none" stroke="black" stroke-dasharray="1,5" points="4020,-70 4020,-206 4380,-206 4380,-70 4020,-70"/>
</g>
<g id="clust119" class="cluster">
<title>cluster_IntrouvablePageModule_declarations</title>
<polygon fill="none" stroke="black" points="4248,-78 4248,-130 4372,-130 4372,-78 4248,-78"/>
</g>
<g id="clust121" class="cluster">
<title>cluster_IntrouvablePageModule_imports</title>
<polygon fill="none" stroke="black" points="4028,-78 4028,-130 4240,-130 4240,-78 4028,-78"/>
</g>
<g id="clust131" class="cluster">
<title>cluster_ProductFormPageModule</title>
<polygon fill="none" stroke="black" stroke-dasharray="1,5" points="4388,-70 4388,-206 4768,-206 4768,-70 4388,-70"/>
</g>
<g id="clust132" class="cluster">
<title>cluster_ProductFormPageModule_declarations</title>
<polygon fill="none" stroke="black" points="4626,-78 4626,-130 4760,-130 4760,-78 4626,-78"/>
</g>
<g id="clust134" class="cluster">
<title>cluster_ProductFormPageModule_imports</title>
<polygon fill="none" stroke="black" points="4396,-78 4396,-130 4618,-130 4618,-78 4396,-78"/>
</g>
<g id="clust144" class="cluster">
<title>cluster_ProductListPageModule</title>
<polygon fill="none" stroke="black" stroke-dasharray="1,5" points="1402,-146 1402,-271 1764,-271 1764,-146 1402,-146"/>
</g>
<g id="clust145" class="cluster">
<title>cluster_ProductListPageModule_declarations</title>
<polygon fill="none" stroke="black" points="1632,-154 1632,-206 1756,-206 1756,-154 1632,-154"/>
</g>
<g id="clust147" class="cluster">
<title>cluster_ProductListPageModule_imports</title>
<polygon fill="none" stroke="black" points="1410,-154 1410,-206 1624,-206 1624,-154 1410,-154"/>
</g>
<g id="clust157" class="cluster">
<title>cluster_ProductSinglePageModule</title>
<polygon fill="none" stroke="black" stroke-dasharray="1,5" points="4776,-70 4776,-206 5166,-206 5166,-70 4776,-70"/>
</g>
<g id="clust158" class="cluster">
<title>cluster_ProductSinglePageModule_declarations</title>
<polygon fill="none" stroke="black" points="5020,-78 5020,-130 5158,-130 5158,-78 5020,-78"/>
</g>
<g id="clust160" class="cluster">
<title>cluster_ProductSinglePageModule_imports</title>
<polygon fill="none" stroke="black" points="4784,-78 4784,-130 5012,-130 5012,-78 4784,-78"/>
</g>
<g id="clust170" class="cluster">
<title>cluster_RecettePageModule</title>
<polygon fill="none" stroke="black" stroke-dasharray="1,5" points="1772,-146 1772,-271 2088,-271 2088,-146 1772,-146"/>
</g>
<g id="clust171" class="cluster">
<title>cluster_RecettePageModule_declarations</title>
<polygon fill="none" stroke="black" points="1978,-154 1978,-206 2080,-206 2080,-154 1978,-154"/>
</g>
<g id="clust173" class="cluster">
<title>cluster_RecettePageModule_imports</title>
<polygon fill="none" stroke="black" points="1780,-154 1780,-206 1970,-206 1970,-154 1780,-154"/>
</g>
<g id="clust183" class="cluster">
<title>cluster_RestaurantPageModule</title>
<polygon fill="none" stroke="black" stroke-dasharray="1,5" points="2096,-146 2096,-271 2448,-271 2448,-146 2096,-146"/>
</g>
<g id="clust184" class="cluster">
<title>cluster_RestaurantPageModule_declarations</title>
<polygon fill="none" stroke="black" points="2320,-154 2320,-206 2440,-206 2440,-154 2320,-154"/>
</g>
<g id="clust186" class="cluster">
<title>cluster_RestaurantPageModule_imports</title>
<polygon fill="none" stroke="black" points="2104,-154 2104,-206 2312,-206 2312,-154 2104,-154"/>
</g>
<g id="clust196" class="cluster">
<title>cluster_SigninPageModule</title>
<polygon fill="none" stroke="black" stroke-dasharray="1,5" points="5174,-70 5174,-206 5478,-206 5478,-70 5174,-70"/>
</g>
<g id="clust197" class="cluster">
<title>cluster_SigninPageModule_declarations</title>
<polygon fill="none" stroke="black" points="5374,-78 5374,-130 5470,-130 5470,-78 5374,-78"/>
</g>
<g id="clust199" class="cluster">
<title>cluster_SigninPageModule_imports</title>
<polygon fill="none" stroke="black" points="5182,-78 5182,-130 5366,-130 5366,-78 5182,-78"/>
</g>
<g id="clust209" class="cluster">
<title>cluster_VerifyEmailPageModule</title>
<polygon fill="none" stroke="black" stroke-dasharray="1,5" points="5486,-70 5486,-206 5858,-206 5858,-70 5486,-70"/>
</g>
<g id="clust210" class="cluster">
<title>cluster_VerifyEmailPageModule_declarations</title>
<polygon fill="none" stroke="black" points="5720,-78 5720,-130 5850,-130 5850,-78 5720,-78"/>
</g>
<g id="clust212" class="cluster">
<title>cluster_VerifyEmailPageModule_imports</title>
<polygon fill="none" stroke="black" points="5494,-78 5494,-130 5712,-130 5712,-78 5494,-78"/>
</g>
<!-- AppComponent -->
<g id="node1" class="node">
<title>AppComponent</title>
<polygon fill="#ffffb3" stroke="black" points="771.94,-198 666.06,-198 666.06,-162 771.94,-162 771.94,-198"/>
<text text-anchor="middle" x="719" y="-175.8" font-family="Times,serif" font-size="14.00">AppComponent</text>
</g>
<!-- AppModule -->
<g id="node2" class="node">
<title>AppModule</title>
<polygon fill="#8dd3c7" stroke="black" points="901.66,-263 898.66,-267 877.66,-267 874.66,-263 818.34,-263 818.34,-227 901.66,-227 901.66,-263"/>
<text text-anchor="middle" x="860" y="-240.8" font-family="Times,serif" font-size="14.00">AppModule</text>
</g>
<!-- AppComponent&#45;&gt;AppModule -->
<g id="edge1" class="edge">
<title>AppComponent&#45;&gt;AppModule</title>
<path fill="none" stroke="black" d="M719,-198.11C719,-217.34 719,-245 719,-245 719,-245 808.08,-245 808.08,-245"/>
<polygon fill="black" stroke="black" points="808.08,-248.5 818.08,-245 808.08,-241.5 808.08,-248.5"/>
</g>
<!-- AppComponent  -->
<g id="node5" class="node">
<title>AppComponent </title>
<polygon fill="#80b1d3" stroke="black" points="914.44,-328 805.56,-328 805.56,-292 914.44,-292 914.44,-328"/>
<text text-anchor="middle" x="860" y="-305.8" font-family="Times,serif" font-size="14.00">AppComponent </text>
</g>
<!-- AppModule&#45;&gt;AppComponent  -->
<g id="edge4" class="edge">
<title>AppModule&#45;&gt;AppComponent </title>
<path fill="none" stroke="black" stroke-dasharray="1,5" d="M860,-263.11C860,-263.11 860,-281.99 860,-281.99"/>
<polygon fill="black" stroke="black" points="856.5,-281.99 860,-291.99 863.5,-281.99 856.5,-281.99"/>
</g>
<!-- AppRoutingModule -->
<g id="node3" class="node">
<title>AppRoutingModule</title>
<polygon fill="#8dd3c7" stroke="black" points="924.27,-198 921.27,-202 900.27,-202 897.27,-198 795.73,-198 795.73,-162 924.27,-162 924.27,-198"/>
<text text-anchor="middle" x="860" y="-175.8" font-family="Times,serif" font-size="14.00">AppRoutingModule</text>
</g>
<!-- AppRoutingModule&#45;&gt;AppModule -->
<g id="edge2" class="edge">
<title>AppRoutingModule&#45;&gt;AppModule</title>
<path fill="none" stroke="black" d="M860,-198.11C860,-198.11 860,-216.99 860,-216.99"/>
<polygon fill="black" stroke="black" points="856.5,-216.99 860,-226.99 863.5,-216.99 856.5,-216.99"/>
</g>
<!-- HeaderPageModule -->
<g id="node4" class="node">
<title>HeaderPageModule</title>
<polygon fill="#8dd3c7" stroke="black" points="1069.67,-198 1066.67,-202 1045.67,-202 1042.67,-198 942.33,-198 942.33,-162 1069.67,-162 1069.67,-198"/>
<text text-anchor="middle" x="1006" y="-175.8" font-family="Times,serif" font-size="14.00">HeaderPageModule</text>
</g>
<!-- HeaderPageModule&#45;&gt;AppModule -->
<g id="edge3" class="edge">
<title>HeaderPageModule&#45;&gt;AppModule</title>
<path fill="none" stroke="black" d="M1037.79,-198.28C1037.79,-219.32 1037.79,-251 1037.79,-251 1037.79,-251 911.68,-251 911.68,-251"/>
<polygon fill="black" stroke="black" points="911.68,-247.5 901.68,-251 911.68,-254.5 911.68,-247.5"/>
</g>
<!-- BateauPageModule -->
<g id="node7" class="node">
<title>BateauPageModule</title>
<polygon fill="#8dd3c7" stroke="black" points="307.63,-263 304.63,-267 283.63,-267 280.63,-263 182.37,-263 182.37,-227 307.63,-227 307.63,-263"/>
<text text-anchor="middle" x="245" y="-240.8" font-family="Times,serif" font-size="14.00">BateauPageModule</text>
</g>
<!-- HeaderPageModule&#45;&gt;BateauPageModule -->
<g id="edge7" class="edge">
<title>HeaderPageModule&#45;&gt;BateauPageModule</title>
<path fill="none" stroke="black" d="M958.31,-198.04C958.31,-205.75 958.31,-213 958.31,-213 958.31,-213 303.93,-213 303.93,-213 303.93,-213 303.93,-216.76 303.93,-216.76"/>
<polygon fill="black" stroke="black" points="300.43,-216.76 303.93,-226.76 307.43,-216.76 300.43,-216.76"/>
</g>
<!-- ContactPageModule -->
<g id="node13" class="node">
<title>ContactPageModule</title>
<polygon fill="#8dd3c7" stroke="black" points="634.31,-263 631.31,-267 610.31,-267 607.31,-263 503.69,-263 503.69,-227 634.31,-227 634.31,-263"/>
<text text-anchor="middle" x="569" y="-240.8" font-family="Times,serif" font-size="14.00">ContactPageModule</text>
</g>
<!-- HeaderPageModule&#45;&gt;ContactPageModule -->
<g id="edge12" class="edge">
<title>HeaderPageModule&#45;&gt;ContactPageModule</title>
<path fill="none" stroke="black" d="M974.21,-198.49C974.21,-210.14 974.21,-223 974.21,-223 974.21,-223 630.27,-223 630.27,-223 630.27,-223 630.27,-223.38 630.27,-223.38"/>
<polygon fill="black" stroke="black" points="626.77,-216.83 630.27,-226.83 633.77,-216.83 626.77,-216.83"/>
</g>
<!-- HeaderPage  -->
<g id="node26" class="node">
<title>HeaderPage </title>
<polygon fill="#fb8072" stroke="black" points="895.62,-122 808.38,-122 808.38,-86 895.62,-86 895.62,-122"/>
<text text-anchor="middle" x="852" y="-99.8" font-family="Times,serif" font-size="14.00">HeaderPage </text>
</g>
<!-- HeaderPageModule&#45;&gt;HeaderPage  -->
<g id="edge21" class="edge">
<title>HeaderPageModule&#45;&gt;HeaderPage </title>
<path fill="none" stroke="black" stroke-dasharray="5,2" d="M984.8,-161.89C984.8,-152.1 984.8,-142 984.8,-142 984.8,-142 852,-142 852,-142 852,-142 852,-132.11 852,-132.11"/>
<polygon fill="black" stroke="black" points="855.5,-132.11 852,-122.11 848.5,-132.11 855.5,-132.11"/>
</g>
<!-- HomePageModule -->
<g id="node28" class="node">
<title>HomePageModule</title>
<polygon fill="#8dd3c7" stroke="black" points="1253.47,-263 1250.47,-267 1229.47,-267 1226.47,-263 1132.53,-263 1132.53,-227 1253.47,-227 1253.47,-263"/>
<text text-anchor="middle" x="1193" y="-240.8" font-family="Times,serif" font-size="14.00">HomePageModule</text>
</g>
<!-- HeaderPageModule&#45;&gt;HomePageModule -->
<g id="edge23" class="edge">
<title>HeaderPageModule&#45;&gt;HomePageModule</title>
<path fill="none" stroke="black" d="M1053.69,-198.02C1053.69,-215.37 1053.69,-239 1053.69,-239 1053.69,-239 1122.3,-239 1122.3,-239"/>
<polygon fill="black" stroke="black" points="1122.3,-242.5 1132.3,-239 1122.3,-235.5 1122.3,-242.5"/>
</g>
<!-- ProductListPageModule -->
<g id="node37" class="node">
<title>ProductListPageModule</title>
<polygon fill="#8dd3c7" stroke="black" points="1593.09,-263 1590.09,-267 1569.09,-267 1566.09,-263 1440.91,-263 1440.91,-227 1593.09,-227 1593.09,-263"/>
<text text-anchor="middle" x="1517" y="-240.8" font-family="Times,serif" font-size="14.00">ProductListPageModule</text>
</g>
<!-- HeaderPageModule&#45;&gt;ProductListPageModule -->
<g id="edge30" class="edge">
<title>HeaderPageModule&#45;&gt;ProductListPageModule</title>
<path fill="none" stroke="black" d="M990.1,-198.11C990.1,-207.9 990.1,-218 990.1,-218 990.1,-218 1491.65,-218 1491.65,-218 1491.65,-218 1491.65,-218.88 1491.65,-218.88"/>
<polygon fill="black" stroke="black" points="1488.15,-216.84 1491.65,-226.84 1495.15,-216.84 1488.15,-216.84"/>
</g>
<!-- RecettePageModule -->
<g id="node43" class="node">
<title>RecettePageModule</title>
<polygon fill="#8dd3c7" stroke="black" points="1939.24,-263 1936.24,-267 1915.24,-267 1912.24,-263 1810.76,-263 1810.76,-227 1939.24,-227 1939.24,-263"/>
<text text-anchor="middle" x="1875" y="-240.8" font-family="Times,serif" font-size="14.00">RecettePageModule</text>
</g>
<!-- HeaderPageModule&#45;&gt;RecettePageModule -->
<g id="edge35" class="edge">
<title>HeaderPageModule&#45;&gt;RecettePageModule</title>
<path fill="none" stroke="black" d="M1006,-198.21C1006,-203.55 1006,-208 1006,-208 1006,-208 1853.54,-208 1853.54,-208 1853.54,-208 1853.54,-216.93 1853.54,-216.93"/>
<polygon fill="black" stroke="black" points="1850.04,-216.93 1853.54,-226.93 1857.04,-216.93 1850.04,-216.93"/>
</g>
<!-- RestaurantPageModule -->
<g id="node46" class="node">
<title>RestaurantPageModule</title>
<polygon fill="#8dd3c7" stroke="black" points="2281.13,-263 2278.13,-267 2257.13,-267 2254.13,-263 2134.87,-263 2134.87,-227 2281.13,-227 2281.13,-263"/>
<text text-anchor="middle" x="2208" y="-240.8" font-family="Times,serif" font-size="14.00">RestaurantPageModule</text>
</g>
<!-- HeaderPageModule&#45;&gt;RestaurantPageModule -->
<g id="edge38" class="edge">
<title>HeaderPageModule&#45;&gt;RestaurantPageModule</title>
<path fill="none" stroke="black" d="M1021.9,-198.12C1021.9,-200.97 1021.9,-203 1021.9,-203 1021.9,-203 2183.56,-203 2183.56,-203 2183.56,-203 2183.56,-216.94 2183.56,-216.94"/>
<polygon fill="black" stroke="black" points="2180.06,-216.94 2183.56,-226.94 2187.06,-216.94 2180.06,-216.94"/>
</g>
<!-- BateauPage -->
<g id="node6" class="node">
<title>BateauPage</title>
<polygon fill="#ffffb3" stroke="black" points="300.08,-198 217.92,-198 217.92,-162 300.08,-162 300.08,-198"/>
<text text-anchor="middle" x="259" y="-175.8" font-family="Times,serif" font-size="14.00">BateauPage</text>
</g>
<!-- BateauPage&#45;&gt;BateauPageModule -->
<g id="edge5" class="edge">
<title>BateauPage&#45;&gt;BateauPageModule</title>
<path fill="none" stroke="black" d="M259,-198.11C259,-198.11 259,-216.99 259,-216.99"/>
<polygon fill="black" stroke="black" points="255.5,-216.99 259,-226.99 262.5,-216.99 255.5,-216.99"/>
</g>
<!-- BateauPageRoutingModule -->
<g id="node8" class="node">
<title>BateauPageRoutingModule</title>
<polygon fill="#8dd3c7" stroke="black" points="194.25,-198 191.25,-202 170.25,-202 167.25,-198 23.75,-198 23.75,-162 194.25,-162 194.25,-198"/>
<text text-anchor="middle" x="109" y="-175.8" font-family="Times,serif" font-size="14.00">BateauPageRoutingModule</text>
</g>
<!-- BateauPageRoutingModule&#45;&gt;BateauPageModule -->
<g id="edge6" class="edge">
<title>BateauPageRoutingModule&#45;&gt;BateauPageModule</title>
<path fill="none" stroke="black" d="M188.28,-198.11C188.28,-198.11 188.28,-216.99 188.28,-216.99"/>
<polygon fill="black" stroke="black" points="184.78,-216.99 188.28,-226.99 191.78,-216.99 184.78,-216.99"/>
</g>
<!-- CartModalPage -->
<g id="node9" class="node">
<title>CartModalPage</title>
<polygon fill="#ffffb3" stroke="black" points="2791.86,-122 2688.14,-122 2688.14,-86 2791.86,-86 2791.86,-122"/>
<text text-anchor="middle" x="2740" y="-99.8" font-family="Times,serif" font-size="14.00">CartModalPage</text>
</g>
<!-- CartModalPageModule -->
<g id="node10" class="node">
<title>CartModalPageModule</title>
<polygon fill="#8dd3c7" stroke="black" points="2720.91,-198 2717.91,-202 2696.91,-202 2693.91,-198 2573.09,-198 2573.09,-162 2720.91,-162 2720.91,-198"/>
<text text-anchor="middle" x="2647" y="-175.8" font-family="Times,serif" font-size="14.00">CartModalPageModule</text>
</g>
<!-- CartModalPage&#45;&gt;CartModalPageModule -->
<g id="edge8" class="edge">
<title>CartModalPage&#45;&gt;CartModalPageModule</title>
<path fill="none" stroke="black" d="M2704.39,-122.01C2704.39,-122.01 2704.39,-151.85 2704.39,-151.85"/>
<polygon fill="black" stroke="black" points="2700.89,-151.85 2704.39,-161.85 2707.89,-151.85 2700.89,-151.85"/>
</g>
<!-- CartModalPageRoutingModule -->
<g id="node11" class="node">
<title>CartModalPageRoutingModule</title>
<polygon fill="#8dd3c7" stroke="black" points="2664.03,-122 2661.03,-126 2640.03,-126 2637.03,-122 2471.97,-122 2471.97,-86 2664.03,-86 2664.03,-122"/>
<text text-anchor="middle" x="2568" y="-99.8" font-family="Times,serif" font-size="14.00">CartModalPageRoutingModule</text>
</g>
<!-- CartModalPageRoutingModule&#45;&gt;CartModalPageModule -->
<g id="edge9" class="edge">
<title>CartModalPageRoutingModule&#45;&gt;CartModalPageModule</title>
<path fill="none" stroke="black" d="M2618.78,-122.01C2618.78,-122.01 2618.78,-151.85 2618.78,-151.85"/>
<polygon fill="black" stroke="black" points="2615.28,-151.85 2618.78,-161.85 2622.28,-151.85 2615.28,-151.85"/>
</g>
<!-- ContactPage -->
<g id="node12" class="node">
<title>ContactPage</title>
<polygon fill="#ffffb3" stroke="black" points="626.26,-198 539.74,-198 539.74,-162 626.26,-162 626.26,-198"/>
<text text-anchor="middle" x="583" y="-175.8" font-family="Times,serif" font-size="14.00">ContactPage</text>
</g>
<!-- ContactPage&#45;&gt;ContactPageModule -->
<g id="edge10" class="edge">
<title>ContactPage&#45;&gt;ContactPageModule</title>
<path fill="none" stroke="black" d="M583,-198.11C583,-198.11 583,-216.99 583,-216.99"/>
<polygon fill="black" stroke="black" points="579.5,-216.99 583,-226.99 586.5,-216.99 579.5,-216.99"/>
</g>
<!-- ContactPageRoutingModule -->
<g id="node14" class="node">
<title>ContactPageRoutingModule</title>
<polygon fill="#8dd3c7" stroke="black" points="515.93,-198 512.93,-202 491.93,-202 488.93,-198 340.07,-198 340.07,-162 515.93,-162 515.93,-198"/>
<text text-anchor="middle" x="428" y="-175.8" font-family="Times,serif" font-size="14.00">ContactPageRoutingModule</text>
</g>
<!-- ContactPageRoutingModule&#45;&gt;ContactPageModule -->
<g id="edge11" class="edge">
<title>ContactPageRoutingModule&#45;&gt;ContactPageModule</title>
<path fill="none" stroke="black" d="M509.78,-198.11C509.78,-198.11 509.78,-216.99 509.78,-216.99"/>
<polygon fill="black" stroke="black" points="506.28,-216.99 509.78,-226.99 513.28,-216.99 506.28,-216.99"/>
</g>
<!-- DetailBateauPage -->
<g id="node15" class="node">
<title>DetailBateauPage</title>
<polygon fill="#ffffb3" stroke="black" points="3176.29,-122 3059.71,-122 3059.71,-86 3176.29,-86 3176.29,-122"/>
<text text-anchor="middle" x="3118" y="-99.8" font-family="Times,serif" font-size="14.00">DetailBateauPage</text>
</g>
<!-- DetailBateauPageModule -->
<g id="node16" class="node">
<title>DetailBateauPageModule</title>
<polygon fill="#8dd3c7" stroke="black" points="3098.84,-198 3095.84,-202 3074.84,-202 3071.84,-198 2939.16,-198 2939.16,-162 3098.84,-162 3098.84,-198"/>
<text text-anchor="middle" x="3019" y="-175.8" font-family="Times,serif" font-size="14.00">DetailBateauPageModule</text>
</g>
<!-- DetailBateauPage&#45;&gt;DetailBateauPageModule -->
<g id="edge13" class="edge">
<title>DetailBateauPage&#45;&gt;DetailBateauPageModule</title>
<path fill="none" stroke="black" d="M3079.39,-122.01C3079.39,-122.01 3079.39,-151.85 3079.39,-151.85"/>
<polygon fill="black" stroke="black" points="3075.89,-151.85 3079.39,-161.85 3082.89,-151.85 3075.89,-151.85"/>
</g>
<!-- DetailBateauPageRoutingModule -->
<g id="node17" class="node">
<title>DetailBateauPageRoutingModule</title>
<polygon fill="#8dd3c7" stroke="black" points="3036.46,-122 3033.46,-126 3012.46,-126 3009.46,-122 2831.54,-122 2831.54,-86 3036.46,-86 3036.46,-122"/>
<text text-anchor="middle" x="2934" y="-99.8" font-family="Times,serif" font-size="14.00">DetailBateauPageRoutingModule</text>
</g>
<!-- DetailBateauPageRoutingModule&#45;&gt;DetailBateauPageModule -->
<g id="edge14" class="edge">
<title>DetailBateauPageRoutingModule&#45;&gt;DetailBateauPageModule</title>
<path fill="none" stroke="black" d="M2987.78,-122.01C2987.78,-122.01 2987.78,-151.85 2987.78,-151.85"/>
<polygon fill="black" stroke="black" points="2984.28,-151.85 2987.78,-161.85 2991.28,-151.85 2984.28,-151.85"/>
</g>
<!-- DetailRecettePage -->
<g id="node18" class="node">
<title>DetailRecettePage</title>
<polygon fill="#ffffb3" stroke="black" points="3567.9,-122 3448.1,-122 3448.1,-86 3567.9,-86 3567.9,-122"/>
<text text-anchor="middle" x="3508" y="-99.8" font-family="Times,serif" font-size="14.00">DetailRecettePage</text>
</g>
<!-- DetailRecettePageModule -->
<g id="node19" class="node">
<title>DetailRecettePageModule</title>
<polygon fill="#8dd3c7" stroke="black" points="3488.45,-198 3485.45,-202 3464.45,-202 3461.45,-198 3325.55,-198 3325.55,-162 3488.45,-162 3488.45,-198"/>
<text text-anchor="middle" x="3407" y="-175.8" font-family="Times,serif" font-size="14.00">DetailRecettePageModule</text>
</g>
<!-- DetailRecettePage&#45;&gt;DetailRecettePageModule -->
<g id="edge15" class="edge">
<title>DetailRecettePage&#45;&gt;DetailRecettePageModule</title>
<path fill="none" stroke="black" d="M3468.39,-122.01C3468.39,-122.01 3468.39,-151.85 3468.39,-151.85"/>
<polygon fill="black" stroke="black" points="3464.89,-151.85 3468.39,-161.85 3471.89,-151.85 3464.89,-151.85"/>
</g>
<!-- DetailRecettePageRoutingModule -->
<g id="node20" class="node">
<title>DetailRecettePageRoutingModule</title>
<polygon fill="#8dd3c7" stroke="black" points="3424.06,-122 3421.06,-126 3400.06,-126 3397.06,-122 3215.94,-122 3215.94,-86 3424.06,-86 3424.06,-122"/>
<text text-anchor="middle" x="3320" y="-99.8" font-family="Times,serif" font-size="14.00">DetailRecettePageRoutingModule</text>
</g>
<!-- DetailRecettePageRoutingModule&#45;&gt;DetailRecettePageModule -->
<g id="edge16" class="edge">
<title>DetailRecettePageRoutingModule&#45;&gt;DetailRecettePageModule</title>
<path fill="none" stroke="black" d="M3374.78,-122.01C3374.78,-122.01 3374.78,-151.85 3374.78,-151.85"/>
<polygon fill="black" stroke="black" points="3371.28,-151.85 3374.78,-161.85 3378.28,-151.85 3371.28,-151.85"/>
</g>
<!-- DetailRestaurantPage -->
<g id="node21" class="node">
<title>DetailRestaurantPage</title>
<polygon fill="#ffffb3" stroke="black" points="3995.79,-122 3858.21,-122 3858.21,-86 3995.79,-86 3995.79,-122"/>
<text text-anchor="middle" x="3927" y="-99.8" font-family="Times,serif" font-size="14.00">DetailRestaurantPage</text>
</g>
<!-- DetailRestaurantPageModule -->
<g id="node22" class="node">
<title>DetailRestaurantPageModule</title>
<polygon fill="#8dd3c7" stroke="black" points="3907.34,-198 3904.34,-202 3883.34,-202 3880.34,-198 3726.66,-198 3726.66,-162 3907.34,-162 3907.34,-198"/>
<text text-anchor="middle" x="3817" y="-175.8" font-family="Times,serif" font-size="14.00">DetailRestaurantPageModule</text>
</g>
<!-- DetailRestaurantPage&#45;&gt;DetailRestaurantPageModule -->
<g id="edge17" class="edge">
<title>DetailRestaurantPage&#45;&gt;DetailRestaurantPageModule</title>
<path fill="none" stroke="black" d="M3882.89,-122.01C3882.89,-122.01 3882.89,-151.85 3882.89,-151.85"/>
<polygon fill="black" stroke="black" points="3879.39,-151.85 3882.89,-161.85 3886.39,-151.85 3879.39,-151.85"/>
</g>
<!-- DetailRestaurantPageRoutingModule -->
<g id="node23" class="node">
<title>DetailRestaurantPageRoutingModule</title>
<polygon fill="#8dd3c7" stroke="black" points="3833.95,-122 3830.95,-126 3809.95,-126 3806.95,-122 3608.05,-122 3608.05,-86 3833.95,-86 3833.95,-122"/>
<text text-anchor="middle" x="3721" y="-99.8" font-family="Times,serif" font-size="14.00">DetailRestaurantPageRoutingModule</text>
</g>
<!-- DetailRestaurantPageRoutingModule&#45;&gt;DetailRestaurantPageModule -->
<g id="edge18" class="edge">
<title>DetailRestaurantPageRoutingModule&#45;&gt;DetailRestaurantPageModule</title>
<path fill="none" stroke="black" d="M3780.28,-122.01C3780.28,-122.01 3780.28,-151.85 3780.28,-151.85"/>
<polygon fill="black" stroke="black" points="3776.78,-151.85 3780.28,-161.85 3783.78,-151.85 3776.78,-151.85"/>
</g>
<!-- HeaderPage -->
<g id="node24" class="node">
<title>HeaderPage</title>
<polygon fill="#ffffb3" stroke="black" points="1199.62,-122 1116.38,-122 1116.38,-86 1199.62,-86 1199.62,-122"/>
<text text-anchor="middle" x="1158" y="-99.8" font-family="Times,serif" font-size="14.00">HeaderPage</text>
</g>
<!-- HeaderPage&#45;&gt;HeaderPageModule -->
<g id="edge19" class="edge">
<title>HeaderPage&#45;&gt;HeaderPageModule</title>
<path fill="none" stroke="black" d="M1116.31,-104C1107.63,-104 1101.05,-104 1101.05,-104 1101.05,-104 1101.05,-180 1101.05,-180 1101.05,-180 1079.66,-180 1079.66,-180"/>
<polygon fill="black" stroke="black" points="1079.66,-176.5 1069.66,-180 1079.66,-183.5 1079.66,-176.5"/>
</g>
<!-- HeaderPageRoutingModule -->
<g id="node25" class="node">
<title>HeaderPageRoutingModule</title>
<polygon fill="#8dd3c7" stroke="black" points="1092.29,-122 1089.29,-126 1068.29,-126 1065.29,-122 919.71,-122 919.71,-86 1092.29,-86 1092.29,-122"/>
<text text-anchor="middle" x="1006" y="-99.8" font-family="Times,serif" font-size="14.00">HeaderPageRoutingModule</text>
</g>
<!-- HeaderPageRoutingModule&#45;&gt;HeaderPageModule -->
<g id="edge20" class="edge">
<title>HeaderPageRoutingModule&#45;&gt;HeaderPageModule</title>
<path fill="none" stroke="black" d="M1027.2,-122.01C1027.2,-122.01 1027.2,-151.85 1027.2,-151.85"/>
<polygon fill="black" stroke="black" points="1023.7,-151.85 1027.2,-161.85 1030.7,-151.85 1023.7,-151.85"/>
</g>
<!-- HomePage -->
<g id="node27" class="node">
<title>HomePage</title>
<polygon fill="#ffffb3" stroke="black" points="1377.92,-198 1300.08,-198 1300.08,-162 1377.92,-162 1377.92,-198"/>
<text text-anchor="middle" x="1339" y="-175.8" font-family="Times,serif" font-size="14.00">HomePage</text>
</g>
<!-- HomePage&#45;&gt;HomePageModule -->
<g id="edge22" class="edge">
<title>HomePage&#45;&gt;HomePageModule</title>
<path fill="none" stroke="black" d="M1339,-198.11C1339,-217.34 1339,-245 1339,-245 1339,-245 1263.65,-245 1263.65,-245"/>
<polygon fill="black" stroke="black" points="1263.65,-241.5 1253.65,-245 1263.65,-248.5 1263.65,-241.5"/>
</g>
<!-- HomePageRoutingModule -->
<g id="node29" class="node">
<title>HomePageRoutingModule</title>
<polygon fill="#8dd3c7" stroke="black" points="1276.09,-198 1273.09,-202 1252.09,-202 1249.09,-198 1109.91,-198 1109.91,-162 1276.09,-162 1276.09,-198"/>
<text text-anchor="middle" x="1193" y="-175.8" font-family="Times,serif" font-size="14.00">HomePageRoutingModule</text>
</g>
<!-- HomePageRoutingModule&#45;&gt;HomePageModule -->
<g id="edge24" class="edge">
<title>HomePageRoutingModule&#45;&gt;HomePageModule</title>
<path fill="none" stroke="black" d="M1193,-198.11C1193,-198.11 1193,-216.99 1193,-216.99"/>
<polygon fill="black" stroke="black" points="1189.5,-216.99 1193,-226.99 1196.5,-216.99 1189.5,-216.99"/>
</g>
<!-- IntrouvablePage -->
<g id="node30" class="node">
<title>IntrouvablePage</title>
<polygon fill="#ffffb3" stroke="black" points="4363.74,-122 4256.26,-122 4256.26,-86 4363.74,-86 4363.74,-122"/>
<text text-anchor="middle" x="4310" y="-99.8" font-family="Times,serif" font-size="14.00">IntrouvablePage</text>
</g>
<!-- IntrouvablePageModule -->
<g id="node31" class="node">
<title>IntrouvablePageModule</title>
<polygon fill="#8dd3c7" stroke="black" points="4290.79,-198 4287.79,-202 4266.79,-202 4263.79,-198 4139.21,-198 4139.21,-162 4290.79,-162 4290.79,-198"/>
<text text-anchor="middle" x="4215" y="-175.8" font-family="Times,serif" font-size="14.00">IntrouvablePageModule</text>
</g>
<!-- IntrouvablePage&#45;&gt;IntrouvablePageModule -->
<g id="edge25" class="edge">
<title>IntrouvablePage&#45;&gt;IntrouvablePageModule</title>
<path fill="none" stroke="black" d="M4273.39,-122.01C4273.39,-122.01 4273.39,-151.85 4273.39,-151.85"/>
<polygon fill="black" stroke="black" points="4269.89,-151.85 4273.39,-161.85 4276.89,-151.85 4269.89,-151.85"/>
</g>
<!-- IntrouvablePageRoutingModule -->
<g id="node32" class="node">
<title>IntrouvablePageRoutingModule</title>
<polygon fill="#8dd3c7" stroke="black" points="4232.41,-122 4229.41,-126 4208.41,-126 4205.41,-122 4035.59,-122 4035.59,-86 4232.41,-86 4232.41,-122"/>
<text text-anchor="middle" x="4134" y="-99.8" font-family="Times,serif" font-size="14.00">IntrouvablePageRoutingModule</text>
</g>
<!-- IntrouvablePageRoutingModule&#45;&gt;IntrouvablePageModule -->
<g id="edge26" class="edge">
<title>IntrouvablePageRoutingModule&#45;&gt;IntrouvablePageModule</title>
<path fill="none" stroke="black" d="M4185.78,-122.01C4185.78,-122.01 4185.78,-151.85 4185.78,-151.85"/>
<polygon fill="black" stroke="black" points="4182.28,-151.85 4185.78,-161.85 4189.28,-151.85 4182.28,-151.85"/>
</g>
<!-- ProductFormPage -->
<g id="node33" class="node">
<title>ProductFormPage</title>
<polygon fill="#ffffb3" stroke="black" points="4751.59,-122 4634.41,-122 4634.41,-86 4751.59,-86 4751.59,-122"/>
<text text-anchor="middle" x="4693" y="-99.8" font-family="Times,serif" font-size="14.00">ProductFormPage</text>
</g>
<!-- ProductFormPageModule -->
<g id="node34" class="node">
<title>ProductFormPageModule</title>
<polygon fill="#8dd3c7" stroke="black" points="4673.14,-198 4670.14,-202 4649.14,-202 4646.14,-198 4512.86,-198 4512.86,-162 4673.14,-162 4673.14,-198"/>
<text text-anchor="middle" x="4593" y="-175.8" font-family="Times,serif" font-size="14.00">ProductFormPageModule</text>
</g>
<!-- ProductFormPage&#45;&gt;ProductFormPageModule -->
<g id="edge27" class="edge">
<title>ProductFormPage&#45;&gt;ProductFormPageModule</title>
<path fill="none" stroke="black" d="M4653.89,-122.01C4653.89,-122.01 4653.89,-151.85 4653.89,-151.85"/>
<polygon fill="black" stroke="black" points="4650.39,-151.85 4653.89,-161.85 4657.39,-151.85 4650.39,-151.85"/>
</g>
<!-- ProductFormPageRoutingModule -->
<g id="node35" class="node">
<title>ProductFormPageRoutingModule</title>
<polygon fill="#8dd3c7" stroke="black" points="4609.76,-122 4606.76,-126 4585.76,-126 4582.76,-122 4404.24,-122 4404.24,-86 4609.76,-86 4609.76,-122"/>
<text text-anchor="middle" x="4507" y="-99.8" font-family="Times,serif" font-size="14.00">ProductFormPageRoutingModule</text>
</g>
<!-- ProductFormPageRoutingModule&#45;&gt;ProductFormPageModule -->
<g id="edge28" class="edge">
<title>ProductFormPageRoutingModule&#45;&gt;ProductFormPageModule</title>
<path fill="none" stroke="black" d="M4561.28,-122.01C4561.28,-122.01 4561.28,-151.85 4561.28,-151.85"/>
<polygon fill="black" stroke="black" points="4557.78,-151.85 4561.28,-161.85 4564.78,-151.85 4557.78,-151.85"/>
</g>
<!-- ProductListPage -->
<g id="node36" class="node">
<title>ProductListPage</title>
<polygon fill="#ffffb3" stroke="black" points="1748.04,-198 1639.96,-198 1639.96,-162 1748.04,-162 1748.04,-198"/>
<text text-anchor="middle" x="1694" y="-175.8" font-family="Times,serif" font-size="14.00">ProductListPage</text>
</g>
<!-- ProductListPage&#45;&gt;ProductListPageModule -->
<g id="edge29" class="edge">
<title>ProductListPage&#45;&gt;ProductListPageModule</title>
<path fill="none" stroke="black" d="M1694,-198.11C1694,-217.34 1694,-245 1694,-245 1694,-245 1603.09,-245 1603.09,-245"/>
<polygon fill="black" stroke="black" points="1603.09,-241.5 1593.09,-245 1603.09,-248.5 1603.09,-241.5"/>
</g>
<!-- ProductListPageRoutingModule -->
<g id="node38" class="node">
<title>ProductListPageRoutingModule</title>
<polygon fill="#8dd3c7" stroke="black" points="1615.71,-198 1612.71,-202 1591.71,-202 1588.71,-198 1418.29,-198 1418.29,-162 1615.71,-162 1615.71,-198"/>
<text text-anchor="middle" x="1517" y="-175.8" font-family="Times,serif" font-size="14.00">ProductListPageRoutingModule</text>
</g>
<!-- ProductListPageRoutingModule&#45;&gt;ProductListPageModule -->
<g id="edge31" class="edge">
<title>ProductListPageRoutingModule&#45;&gt;ProductListPageModule</title>
<path fill="none" stroke="black" d="M1542.35,-198.11C1542.35,-198.11 1542.35,-216.99 1542.35,-216.99"/>
<polygon fill="black" stroke="black" points="1538.85,-216.99 1542.35,-226.99 1545.85,-216.99 1538.85,-216.99"/>
</g>
<!-- ProductSinglePage -->
<g id="node39" class="node">
<title>ProductSinglePage</title>
<polygon fill="#ffffb3" stroke="black" points="5150.04,-122 5027.96,-122 5027.96,-86 5150.04,-86 5150.04,-122"/>
<text text-anchor="middle" x="5089" y="-99.8" font-family="Times,serif" font-size="14.00">ProductSinglePage</text>
</g>
<!-- ProductSinglePageModule -->
<g id="node40" class="node">
<title>ProductSinglePageModule</title>
<polygon fill="#8dd3c7" stroke="black" points="5069.09,-198 5066.09,-202 5045.09,-202 5042.09,-198 4902.91,-198 4902.91,-162 5069.09,-162 5069.09,-198"/>
<text text-anchor="middle" x="4986" y="-175.8" font-family="Times,serif" font-size="14.00">ProductSinglePageModule</text>
</g>
<!-- ProductSinglePage&#45;&gt;ProductSinglePageModule -->
<g id="edge32" class="edge">
<title>ProductSinglePage&#45;&gt;ProductSinglePageModule</title>
<path fill="none" stroke="black" d="M5048.39,-122.01C5048.39,-122.01 5048.39,-151.85 5048.39,-151.85"/>
<polygon fill="black" stroke="black" points="5044.89,-151.85 5048.39,-161.85 5051.89,-151.85 5044.89,-151.85"/>
</g>
<!-- ProductSinglePageRoutingModule -->
<g id="node41" class="node">
<title>ProductSinglePageRoutingModule</title>
<polygon fill="#8dd3c7" stroke="black" points="5003.71,-122 5000.71,-126 4979.71,-126 4976.71,-122 4792.29,-122 4792.29,-86 5003.71,-86 5003.71,-122"/>
<text text-anchor="middle" x="4898" y="-99.8" font-family="Times,serif" font-size="14.00">ProductSinglePageRoutingModule</text>
</g>
<!-- ProductSinglePageRoutingModule&#45;&gt;ProductSinglePageModule -->
<g id="edge33" class="edge">
<title>ProductSinglePageRoutingModule&#45;&gt;ProductSinglePageModule</title>
<path fill="none" stroke="black" d="M4953.28,-122.01C4953.28,-122.01 4953.28,-151.85 4953.28,-151.85"/>
<polygon fill="black" stroke="black" points="4949.78,-151.85 4953.28,-161.85 4956.78,-151.85 4949.78,-151.85"/>
</g>
<!-- RecettePage -->
<g id="node42" class="node">
<title>RecettePage</title>
<polygon fill="#ffffb3" stroke="black" points="2071.69,-198 1986.31,-198 1986.31,-162 2071.69,-162 2071.69,-198"/>
<text text-anchor="middle" x="2029" y="-175.8" font-family="Times,serif" font-size="14.00">RecettePage</text>
</g>
<!-- RecettePage&#45;&gt;RecettePageModule -->
<g id="edge34" class="edge">
<title>RecettePage&#45;&gt;RecettePageModule</title>
<path fill="none" stroke="black" d="M2029,-198.11C2029,-217.34 2029,-245 2029,-245 2029,-245 1949.42,-245 1949.42,-245"/>
<polygon fill="black" stroke="black" points="1949.42,-241.5 1939.42,-245 1949.42,-248.5 1949.42,-241.5"/>
</g>
<!-- RecettePageRoutingModule -->
<g id="node44" class="node">
<title>RecettePageRoutingModule</title>
<polygon fill="#8dd3c7" stroke="black" points="1961.86,-198 1958.86,-202 1937.86,-202 1934.86,-198 1788.14,-198 1788.14,-162 1961.86,-162 1961.86,-198"/>
<text text-anchor="middle" x="1875" y="-175.8" font-family="Times,serif" font-size="14.00">RecettePageRoutingModule</text>
</g>
<!-- RecettePageRoutingModule&#45;&gt;RecettePageModule -->
<g id="edge36" class="edge">
<title>RecettePageRoutingModule&#45;&gt;RecettePageModule</title>
<path fill="none" stroke="black" d="M1896.46,-198.11C1896.46,-198.11 1896.46,-216.99 1896.46,-216.99"/>
<polygon fill="black" stroke="black" points="1892.96,-216.99 1896.46,-226.99 1899.96,-216.99 1892.96,-216.99"/>
</g>
<!-- RestaurantPage -->
<g id="node45" class="node">
<title>RestaurantPage</title>
<polygon fill="#ffffb3" stroke="black" points="2431.58,-198 2328.42,-198 2328.42,-162 2431.58,-162 2431.58,-198"/>
<text text-anchor="middle" x="2380" y="-175.8" font-family="Times,serif" font-size="14.00">RestaurantPage</text>
</g>
<!-- RestaurantPage&#45;&gt;RestaurantPageModule -->
<g id="edge37" class="edge">
<title>RestaurantPage&#45;&gt;RestaurantPageModule</title>
<path fill="none" stroke="black" d="M2380,-198.11C2380,-217.34 2380,-245 2380,-245 2380,-245 2291.44,-245 2291.44,-245"/>
<polygon fill="black" stroke="black" points="2291.44,-241.5 2281.44,-245 2291.44,-248.5 2291.44,-241.5"/>
</g>
<!-- RestaurantPageRoutingModule -->
<g id="node47" class="node">
<title>RestaurantPageRoutingModule</title>
<polygon fill="#8dd3c7" stroke="black" points="2303.75,-198 2300.75,-202 2279.75,-202 2276.75,-198 2112.25,-198 2112.25,-162 2303.75,-162 2303.75,-198"/>
<text text-anchor="middle" x="2208" y="-175.8" font-family="Times,serif" font-size="14.00">RestaurantPageRoutingModule</text>
</g>
<!-- RestaurantPageRoutingModule&#45;&gt;RestaurantPageModule -->
<g id="edge39" class="edge">
<title>RestaurantPageRoutingModule&#45;&gt;RestaurantPageModule</title>
<path fill="none" stroke="black" d="M2232.44,-198.11C2232.44,-198.11 2232.44,-216.99 2232.44,-216.99"/>
<polygon fill="black" stroke="black" points="2228.94,-216.99 2232.44,-226.99 2235.94,-216.99 2228.94,-216.99"/>
</g>
<!-- SigninPage -->
<g id="node48" class="node">
<title>SigninPage</title>
<polygon fill="#ffffb3" stroke="black" points="5461.78,-122 5382.22,-122 5382.22,-86 5461.78,-86 5461.78,-122"/>
<text text-anchor="middle" x="5422" y="-99.8" font-family="Times,serif" font-size="14.00">SigninPage</text>
</g>
<!-- SigninPageModule -->
<g id="node49" class="node">
<title>SigninPageModule</title>
<polygon fill="#8dd3c7" stroke="black" points="5402.83,-198 5399.83,-202 5378.83,-202 5375.83,-198 5279.17,-198 5279.17,-162 5402.83,-162 5402.83,-198"/>
<text text-anchor="middle" x="5341" y="-175.8" font-family="Times,serif" font-size="14.00">SigninPageModule</text>
</g>
<!-- SigninPage&#45;&gt;SigninPageModule -->
<g id="edge40" class="edge">
<title>SigninPage&#45;&gt;SigninPageModule</title>
<path fill="none" stroke="black" d="M5392.39,-122.01C5392.39,-122.01 5392.39,-151.85 5392.39,-151.85"/>
<polygon fill="black" stroke="black" points="5388.89,-151.85 5392.39,-161.85 5395.89,-151.85 5388.89,-151.85"/>
</g>
<!-- SigninPageRoutingModule -->
<g id="node50" class="node">
<title>SigninPageRoutingModule</title>
<polygon fill="#8dd3c7" stroke="black" points="5358.44,-122 5355.44,-126 5334.44,-126 5331.44,-122 5189.56,-122 5189.56,-86 5358.44,-86 5358.44,-122"/>
<text text-anchor="middle" x="5274" y="-99.8" font-family="Times,serif" font-size="14.00">SigninPageRoutingModule</text>
</g>
<!-- SigninPageRoutingModule&#45;&gt;SigninPageModule -->
<g id="edge41" class="edge">
<title>SigninPageRoutingModule&#45;&gt;SigninPageModule</title>
<path fill="none" stroke="black" d="M5318.78,-122.01C5318.78,-122.01 5318.78,-151.85 5318.78,-151.85"/>
<polygon fill="black" stroke="black" points="5315.28,-151.85 5318.78,-161.85 5322.28,-151.85 5315.28,-151.85"/>
</g>
<!-- VerifyEmailPage -->
<g id="node51" class="node">
<title>VerifyEmailPage</title>
<polygon fill="#ffffb3" stroke="black" points="5841.68,-122 5728.32,-122 5728.32,-86 5841.68,-86 5841.68,-122"/>
<text text-anchor="middle" x="5785" y="-99.8" font-family="Times,serif" font-size="14.00">VerifyEmailPage</text>
</g>
<!-- VerifyEmailPageModule -->
<g id="node52" class="node">
<title>VerifyEmailPageModule</title>
<polygon fill="#8dd3c7" stroke="black" points="5765.23,-198 5762.23,-202 5741.23,-202 5738.23,-198 5608.77,-198 5608.77,-162 5765.23,-162 5765.23,-198"/>
<text text-anchor="middle" x="5687" y="-175.8" font-family="Times,serif" font-size="14.00">VerifyEmailPageModule</text>
</g>
<!-- VerifyEmailPage&#45;&gt;VerifyEmailPageModule -->
<g id="edge42" class="edge">
<title>VerifyEmailPage&#45;&gt;VerifyEmailPageModule</title>
<path fill="none" stroke="black" d="M5746.89,-122.01C5746.89,-122.01 5746.89,-151.85 5746.89,-151.85"/>
<polygon fill="black" stroke="black" points="5743.39,-151.85 5746.89,-161.85 5750.39,-151.85 5743.39,-151.85"/>
</g>
<!-- VerifyEmailPageRoutingModule -->
<g id="node53" class="node">
<title>VerifyEmailPageRoutingModule</title>
<polygon fill="#8dd3c7" stroke="black" points="5703.85,-122 5700.85,-126 5679.85,-126 5676.85,-122 5502.15,-122 5502.15,-86 5703.85,-86 5703.85,-122"/>
<text text-anchor="middle" x="5603" y="-99.8" font-family="Times,serif" font-size="14.00">VerifyEmailPageRoutingModule</text>
</g>
<!-- VerifyEmailPageRoutingModule&#45;&gt;VerifyEmailPageModule -->
<g id="edge43" class="edge">
<title>VerifyEmailPageRoutingModule&#45;&gt;VerifyEmailPageModule</title>
<path fill="none" stroke="black" d="M5656.28,-122.01C5656.28,-122.01 5656.28,-151.85 5656.28,-151.85"/>
<polygon fill="black" stroke="black" points="5652.78,-151.85 5656.28,-161.85 5659.78,-151.85 5652.78,-151.85"/>
</g>
</g>
</svg>
