<?xml version="1.0" encoding="UTF-8" standalone="no"?>
<!DOCTYPE svg PUBLIC "-//W3C//DTD SVG 1.1//EN"
 "http://www.w3.org/Graphics/SVG/1.1/DTD/svg11.dtd">
<!-- Generated by graphviz version 2.44.1 (20200629.0846)
 -->
<!-- Title: dependencies Pages: 1 -->
<svg width="504pt" height="211pt"
 viewBox="0.00 0.00 504.00 211.00" xmlns="http://www.w3.org/2000/svg" xmlns:xlink="http://www.w3.org/1999/xlink">
<g id="graph0" class="graph" transform="scale(1 1) rotate(0) translate(4 207)">
<title>dependencies</title>
<polygon fill="white" stroke="transparent" points="-4,4 -4,-207 500,-207 500,4 -4,4"/>
<text text-anchor="start" x="227.01" y="-42.4" font-family="sans-serif" font-weight="bold" font-size="14.00">Legend</text>
<polygon fill="#ffffb3" stroke="transparent" points="14,-10 14,-30 34,-30 34,-10 14,-10"/>
<text text-anchor="start" x="37.63" y="-15.4" font-family="sans-serif" font-size="14.00"> &#160;Declarations</text>
<polygon fill="#8dd3c7" stroke="transparent" points="127,-10 127,-30 147,-30 147,-10 127,-10"/>
<text text-anchor="start" x="150.73" y="-15.4" font-family="sans-serif" font-size="14.00"> &#160;Module</text>
<polygon fill="#80b1d3" stroke="transparent" points="213,-10 213,-30 233,-30 233,-10 213,-10"/>
<text text-anchor="start" x="236.78" y="-15.4" font-family="sans-serif" font-size="14.00"> &#160;Bootstrap</text>
<polygon fill="#fdb462" stroke="transparent" points="310,-10 310,-30 330,-30 330,-10 310,-10"/>
<text text-anchor="start" x="333.67" y="-15.4" font-family="sans-serif" font-size="14.00"> &#160;Providers</text>
<polygon fill="#fb8072" stroke="transparent" points="406,-10 406,-30 426,-30 426,-10 406,-10"/>
<text text-anchor="start" x="429.73" y="-15.4" font-family="sans-serif" font-size="14.00"> &#160;Exports</text>
<g id="clust1" class="cluster">
<title>cluster_RecettePageModule</title>
<polygon fill="none" stroke="black" stroke-dasharray="1,5" points="17,-70 17,-195 479,-195 479,-70 17,-70"/>
</g>
<g id="clust2" class="cluster">
<title>cluster_RecettePageModule_declarations</title>
<polygon fill="none" stroke="black" points="369,-78 369,-130 471,-130 471,-78 369,-78"/>
</g>
<g id="clust4" class="cluster">
<title>cluster_RecettePageModule_imports</title>
<polygon fill="none" stroke="black" points="25,-78 25,-130 361,-130 361,-78 25,-78"/>
</g>
<!-- RecettePage -->
<g id="node1" class="node">
<title>RecettePage</title>
<polygon fill="#ffffb3" stroke="black" points="462.69,-122 377.31,-122 377.31,-86 462.69,-86 462.69,-122"/>
<text text-anchor="middle" x="420" y="-99.8" font-family="Times,serif" font-size="14.00">RecettePage</text>
</g>
<!-- RecettePageModule -->
<g id="node2" class="node">
<title>RecettePageModule</title>
<polygon fill="#8dd3c7" stroke="black" points="353.24,-187 350.24,-191 329.24,-191 326.24,-187 224.76,-187 224.76,-151 353.24,-151 353.24,-187"/>
<text text-anchor="middle" x="289" y="-164.8" font-family="Times,serif" font-size="14.00">RecettePageModule</text>
</g>
<!-- RecettePage&#45;&gt;RecettePageModule -->
<g id="edge1" class="edge">
<title>RecettePage&#45;&gt;RecettePageModule</title>
<path fill="none" stroke="black" d="M420,-122.11C420,-141.34 420,-169 420,-169 420,-169 363.35,-169 363.35,-169"/>
<polygon fill="black" stroke="black" points="363.35,-165.5 353.35,-169 363.35,-172.5 363.35,-165.5"/>
</g>
<!-- HeaderPageModule -->
<g id="node3" class="node">
<title>HeaderPageModule</title>
<polygon fill="#8dd3c7" stroke="black" points="352.67,-122 349.67,-126 328.67,-126 325.67,-122 225.33,-122 225.33,-86 352.67,-86 352.67,-122"/>
<text text-anchor="middle" x="289" y="-99.8" font-family="Times,serif" font-size="14.00">HeaderPageModule</text>
</g>
<!-- HeaderPageModule&#45;&gt;RecettePageModule -->
<g id="edge2" class="edge">
<title>HeaderPageModule&#45;&gt;RecettePageModule</title>
<path fill="none" stroke="black" d="M289,-122.11C289,-122.11 289,-140.99 289,-140.99"/>
<polygon fill="black" stroke="black" points="285.5,-140.99 289,-150.99 292.5,-140.99 285.5,-140.99"/>
</g>
<!-- RecettePageRoutingModule -->
<g id="node4" class="node">
<title>RecettePageRoutingModule</title>
<polygon fill="#8dd3c7" stroke="black" points="206.86,-122 203.86,-126 182.86,-126 179.86,-122 33.14,-122 33.14,-86 206.86,-86 206.86,-122"/>
<text text-anchor="middle" x="120" y="-99.8" font-family="Times,serif" font-size="14.00">RecettePageRoutingModule</text>
</g>
<!-- RecettePageRoutingModule&#45;&gt;RecettePageModule -->
<g id="edge3" class="edge">
<title>RecettePageRoutingModule&#45;&gt;RecettePageModule</title>
<path fill="none" stroke="black" d="M120,-122.11C120,-141.34 120,-169 120,-169 120,-169 214.63,-169 214.63,-169"/>
<polygon fill="black" stroke="black" points="214.63,-172.5 224.63,-169 214.63,-165.5 214.63,-172.5"/>
</g>
</g>
</svg>
