<?xml version="1.0" encoding="UTF-8" standalone="no"?>
<!DOCTYPE svg PUBLIC "-//W3C//DTD SVG 1.1//EN"
 "http://www.w3.org/Graphics/SVG/1.1/DTD/svg11.dtd">
<!-- Generated by graphviz version 2.44.1 (20200629.0846)
 -->
<!-- Title: dependencies Pages: 1 -->
<svg width="504pt" height="211pt"
 viewBox="0.00 0.00 504.00 211.00" xmlns="http://www.w3.org/2000/svg" xmlns:xlink="http://www.w3.org/1999/xlink">
<g id="graph0" class="graph" transform="scale(1 1) rotate(0) translate(4 207)">
<title>dependencies</title>
<polygon fill="white" stroke="transparent" points="-4,4 -4,-207 500,-207 500,4 -4,4"/>
<text text-anchor="start" x="227.01" y="-42.4" font-family="sans-serif" font-weight="bold" font-size="14.00">Legend</text>
<polygon fill="#ffffb3" stroke="transparent" points="14,-10 14,-30 34,-30 34,-10 14,-10"/>
<text text-anchor="start" x="37.63" y="-15.4" font-family="sans-serif" font-size="14.00"> &#160;Declarations</text>
<polygon fill="#8dd3c7" stroke="transparent" points="127,-10 127,-30 147,-30 147,-10 127,-10"/>
<text text-anchor="start" x="150.73" y="-15.4" font-family="sans-serif" font-size="14.00"> &#160;Module</text>
<polygon fill="#80b1d3" stroke="transparent" points="213,-10 213,-30 233,-30 233,-10 213,-10"/>
<text text-anchor="start" x="236.78" y="-15.4" font-family="sans-serif" font-size="14.00"> &#160;Bootstrap</text>
<polygon fill="#fdb462" stroke="transparent" points="310,-10 310,-30 330,-30 330,-10 310,-10"/>
<text text-anchor="start" x="333.67" y="-15.4" font-family="sans-serif" font-size="14.00"> &#160;Providers</text>
<polygon fill="#fb8072" stroke="transparent" points="406,-10 406,-30 426,-30 426,-10 406,-10"/>
<text text-anchor="start" x="429.73" y="-15.4" font-family="sans-serif" font-size="14.00"> &#160;Exports</text>
<g id="clust1" class="cluster">
<title>cluster_BateauPageModule</title>
<polygon fill="none" stroke="black" stroke-dasharray="1,5" points="21,-70 21,-195 475,-195 475,-70 21,-70"/>
</g>
<g id="clust2" class="cluster">
<title>cluster_BateauPageModule_declarations</title>
<polygon fill="none" stroke="black" points="369,-78 369,-130 467,-130 467,-78 369,-78"/>
</g>
<g id="clust4" class="cluster">
<title>cluster_BateauPageModule_imports</title>
<polygon fill="none" stroke="black" points="29,-78 29,-130 361,-130 361,-78 29,-78"/>
</g>
<!-- BateauPage -->
<g id="node1" class="node">
<title>BateauPage</title>
<polygon fill="#ffffb3" stroke="black" points="459.08,-122 376.92,-122 376.92,-86 459.08,-86 459.08,-122"/>
<text text-anchor="middle" x="418" y="-99.8" font-family="Times,serif" font-size="14.00">BateauPage</text>
</g>
<!-- BateauPageModule -->
<g id="node2" class="node">
<title>BateauPageModule</title>
<polygon fill="#8dd3c7" stroke="black" points="330.63,-187 327.63,-191 306.63,-191 303.63,-187 205.37,-187 205.37,-151 330.63,-151 330.63,-187"/>
<text text-anchor="middle" x="268" y="-164.8" font-family="Times,serif" font-size="14.00">BateauPageModule</text>
</g>
<!-- BateauPage&#45;&gt;BateauPageModule -->
<g id="edge1" class="edge">
<title>BateauPage&#45;&gt;BateauPageModule</title>
<path fill="none" stroke="black" d="M418,-122.11C418,-141.34 418,-169 418,-169 418,-169 340.74,-169 340.74,-169"/>
<polygon fill="black" stroke="black" points="340.74,-165.5 330.74,-169 340.74,-172.5 340.74,-165.5"/>
</g>
<!-- BateauPageRoutingModule -->
<g id="node3" class="node">
<title>BateauPageRoutingModule</title>
<polygon fill="#8dd3c7" stroke="black" points="353.25,-122 350.25,-126 329.25,-126 326.25,-122 182.75,-122 182.75,-86 353.25,-86 353.25,-122"/>
<text text-anchor="middle" x="268" y="-99.8" font-family="Times,serif" font-size="14.00">BateauPageRoutingModule</text>
</g>
<!-- BateauPageRoutingModule&#45;&gt;BateauPageModule -->
<g id="edge2" class="edge">
<title>BateauPageRoutingModule&#45;&gt;BateauPageModule</title>
<path fill="none" stroke="black" d="M268,-122.11C268,-122.11 268,-140.99 268,-140.99"/>
<polygon fill="black" stroke="black" points="264.5,-140.99 268,-150.99 271.5,-140.99 264.5,-140.99"/>
</g>
<!-- HeaderPageModule -->
<g id="node4" class="node">
<title>HeaderPageModule</title>
<polygon fill="#8dd3c7" stroke="black" points="164.67,-122 161.67,-126 140.67,-126 137.67,-122 37.33,-122 37.33,-86 164.67,-86 164.67,-122"/>
<text text-anchor="middle" x="101" y="-99.8" font-family="Times,serif" font-size="14.00">HeaderPageModule</text>
</g>
<!-- HeaderPageModule&#45;&gt;BateauPageModule -->
<g id="edge3" class="edge">
<title>HeaderPageModule&#45;&gt;BateauPageModule</title>
<path fill="none" stroke="black" d="M101,-122.11C101,-141.34 101,-169 101,-169 101,-169 195.34,-169 195.34,-169"/>
<polygon fill="black" stroke="black" points="195.34,-172.5 205.34,-169 195.34,-165.5 195.34,-172.5"/>
</g>
</g>
</svg>
