<?xml version="1.0" encoding="UTF-8" standalone="no"?>
<!DOCTYPE svg PUBLIC "-//W3C//DTD SVG 1.1//EN"
 "http://www.w3.org/Graphics/SVG/1.1/DTD/svg11.dtd">
<!-- Generated by graphviz version 2.44.1 (20200629.0846)
 -->
<!-- Title: dependencies Pages: 1 -->
<svg width="504pt" height="211pt"
 viewBox="0.00 0.00 504.00 211.00" xmlns="http://www.w3.org/2000/svg" xmlns:xlink="http://www.w3.org/1999/xlink">
<g id="graph0" class="graph" transform="scale(1 1) rotate(0) translate(4 207)">
<title>dependencies</title>
<polygon fill="white" stroke="transparent" points="-4,4 -4,-207 500,-207 500,4 -4,4"/>
<text text-anchor="start" x="227.01" y="-42.4" font-family="sans-serif" font-weight="bold" font-size="14.00">Legend</text>
<polygon fill="#ffffb3" stroke="transparent" points="14,-10 14,-30 34,-30 34,-10 14,-10"/>
<text text-anchor="start" x="37.63" y="-15.4" font-family="sans-serif" font-size="14.00"> &#160;Declarations</text>
<polygon fill="#8dd3c7" stroke="transparent" points="127,-10 127,-30 147,-30 147,-10 127,-10"/>
<text text-anchor="start" x="150.73" y="-15.4" font-family="sans-serif" font-size="14.00"> &#160;Module</text>
<polygon fill="#80b1d3" stroke="transparent" points="213,-10 213,-30 233,-30 233,-10 213,-10"/>
<text text-anchor="start" x="236.78" y="-15.4" font-family="sans-serif" font-size="14.00"> &#160;Bootstrap</text>
<polygon fill="#fdb462" stroke="transparent" points="310,-10 310,-30 330,-30 330,-10 310,-10"/>
<text text-anchor="start" x="333.67" y="-15.4" font-family="sans-serif" font-size="14.00"> &#160;Providers</text>
<polygon fill="#fb8072" stroke="transparent" points="406,-10 406,-30 426,-30 426,-10 406,-10"/>
<text text-anchor="start" x="429.73" y="-15.4" font-family="sans-serif" font-size="14.00"> &#160;Exports</text>
<g id="clust1" class="cluster">
<title>cluster_DetailRecettePageModule</title>
<polygon fill="none" stroke="black" stroke-dasharray="1,5" points="56,-70 56,-195 440,-195 440,-70 56,-70"/>
</g>
<g id="clust4" class="cluster">
<title>cluster_DetailRecettePageModule_imports</title>
<polygon fill="none" stroke="black" points="208,-78 208,-130 432,-130 432,-78 208,-78"/>
</g>
<g id="clust2" class="cluster">
<title>cluster_DetailRecettePageModule_declarations</title>
<polygon fill="none" stroke="black" points="64,-78 64,-130 200,-130 200,-78 64,-78"/>
</g>
<!-- DetailRecettePage -->
<g id="node1" class="node">
<title>DetailRecettePage</title>
<polygon fill="#ffffb3" stroke="black" points="191.9,-122 72.1,-122 72.1,-86 191.9,-86 191.9,-122"/>
<text text-anchor="middle" x="132" y="-99.8" font-family="Times,serif" font-size="14.00">DetailRecettePage</text>
</g>
<!-- DetailRecettePageModule -->
<g id="node2" class="node">
<title>DetailRecettePageModule</title>
<polygon fill="#8dd3c7" stroke="black" points="313.45,-187 310.45,-191 289.45,-191 286.45,-187 150.55,-187 150.55,-151 313.45,-151 313.45,-187"/>
<text text-anchor="middle" x="232" y="-164.8" font-family="Times,serif" font-size="14.00">DetailRecettePageModule</text>
</g>
<!-- DetailRecettePage&#45;&gt;DetailRecettePageModule -->
<g id="edge1" class="edge">
<title>DetailRecettePage&#45;&gt;DetailRecettePageModule</title>
<path fill="none" stroke="black" d="M171.11,-122.11C171.11,-122.11 171.11,-140.99 171.11,-140.99"/>
<polygon fill="black" stroke="black" points="167.61,-140.99 171.11,-150.99 174.61,-140.99 167.61,-140.99"/>
</g>
<!-- DetailRecettePageRoutingModule -->
<g id="node3" class="node">
<title>DetailRecettePageRoutingModule</title>
<polygon fill="#8dd3c7" stroke="black" points="424.06,-122 421.06,-126 400.06,-126 397.06,-122 215.94,-122 215.94,-86 424.06,-86 424.06,-122"/>
<text text-anchor="middle" x="320" y="-99.8" font-family="Times,serif" font-size="14.00">DetailRecettePageRoutingModule</text>
</g>
<!-- DetailRecettePageRoutingModule&#45;&gt;DetailRecettePageModule -->
<g id="edge2" class="edge">
<title>DetailRecettePageRoutingModule&#45;&gt;DetailRecettePageModule</title>
<path fill="none" stroke="black" d="M264.72,-122.11C264.72,-122.11 264.72,-140.99 264.72,-140.99"/>
<polygon fill="black" stroke="black" points="261.22,-140.99 264.72,-150.99 268.22,-140.99 261.22,-140.99"/>
</g>
</g>
</svg>
