<?xml version="1.0" encoding="UTF-8" standalone="no"?>
<!DOCTYPE svg PUBLIC "-//W3C//DTD SVG 1.1//EN"
 "http://www.w3.org/Graphics/SVG/1.1/DTD/svg11.dtd">
<!-- Generated by graphviz version 2.44.1 (20200629.0846)
 -->
<!-- Title: dependencies Pages: 1 -->
<svg width="521pt" height="211pt"
 viewBox="0.00 0.00 521.00 211.00" xmlns="http://www.w3.org/2000/svg" xmlns:xlink="http://www.w3.org/1999/xlink">
<g id="graph0" class="graph" transform="scale(1 1) rotate(0) translate(4 207)">
<title>dependencies</title>
<polygon fill="white" stroke="transparent" points="-4,4 -4,-207 517,-207 517,4 -4,4"/>
<text text-anchor="start" x="235.51" y="-42.4" font-family="sans-serif" font-weight="bold" font-size="14.00">Legend</text>
<polygon fill="#ffffb3" stroke="transparent" points="22.5,-10 22.5,-30 42.5,-30 42.5,-10 22.5,-10"/>
<text text-anchor="start" x="46.13" y="-15.4" font-family="sans-serif" font-size="14.00"> &#160;Declarations</text>
<polygon fill="#8dd3c7" stroke="transparent" points="135.5,-10 135.5,-30 155.5,-30 155.5,-10 135.5,-10"/>
<text text-anchor="start" x="159.23" y="-15.4" font-family="sans-serif" font-size="14.00"> &#160;Module</text>
<polygon fill="#80b1d3" stroke="transparent" points="221.5,-10 221.5,-30 241.5,-30 241.5,-10 221.5,-10"/>
<text text-anchor="start" x="245.28" y="-15.4" font-family="sans-serif" font-size="14.00"> &#160;Bootstrap</text>
<polygon fill="#fdb462" stroke="transparent" points="318.5,-10 318.5,-30 338.5,-30 338.5,-10 318.5,-10"/>
<text text-anchor="start" x="342.17" y="-15.4" font-family="sans-serif" font-size="14.00"> &#160;Providers</text>
<polygon fill="#fb8072" stroke="transparent" points="414.5,-10 414.5,-30 434.5,-30 434.5,-10 414.5,-10"/>
<text text-anchor="start" x="438.23" y="-15.4" font-family="sans-serif" font-size="14.00"> &#160;Exports</text>
<g id="clust1" class="cluster">
<title>cluster_RestaurantPageModule</title>
<polygon fill="none" stroke="black" stroke-dasharray="1,5" points="8,-70 8,-195 505,-195 505,-70 8,-70"/>
</g>
<g id="clust2" class="cluster">
<title>cluster_RestaurantPageModule_declarations</title>
<polygon fill="none" stroke="black" points="377,-78 377,-130 497,-130 497,-78 377,-78"/>
</g>
<g id="clust4" class="cluster">
<title>cluster_RestaurantPageModule_imports</title>
<polygon fill="none" stroke="black" points="16,-78 16,-130 369,-130 369,-78 16,-78"/>
</g>
<!-- RestaurantPage -->
<g id="node1" class="node">
<title>RestaurantPage</title>
<polygon fill="#ffffb3" stroke="black" points="488.58,-122 385.42,-122 385.42,-86 488.58,-86 488.58,-122"/>
<text text-anchor="middle" x="437" y="-99.8" font-family="Times,serif" font-size="14.00">RestaurantPage</text>
</g>
<!-- RestaurantPageModule -->
<g id="node2" class="node">
<title>RestaurantPageModule</title>
<polygon fill="#8dd3c7" stroke="black" points="370.13,-187 367.13,-191 346.13,-191 343.13,-187 223.87,-187 223.87,-151 370.13,-151 370.13,-187"/>
<text text-anchor="middle" x="297" y="-164.8" font-family="Times,serif" font-size="14.00">RestaurantPageModule</text>
</g>
<!-- RestaurantPage&#45;&gt;RestaurantPageModule -->
<g id="edge1" class="edge">
<title>RestaurantPage&#45;&gt;RestaurantPageModule</title>
<path fill="none" stroke="black" d="M385.38,-104C374.1,-104 365.45,-104 365.45,-104 365.45,-104 365.45,-140.89 365.45,-140.89"/>
<polygon fill="black" stroke="black" points="361.95,-140.89 365.45,-150.89 368.95,-140.89 361.95,-140.89"/>
</g>
<!-- HeaderPageModule -->
<g id="node3" class="node">
<title>HeaderPageModule</title>
<polygon fill="#8dd3c7" stroke="black" points="360.67,-122 357.67,-126 336.67,-126 333.67,-122 233.33,-122 233.33,-86 360.67,-86 360.67,-122"/>
<text text-anchor="middle" x="297" y="-99.8" font-family="Times,serif" font-size="14.00">HeaderPageModule</text>
</g>
<!-- HeaderPageModule&#45;&gt;RestaurantPageModule -->
<g id="edge2" class="edge">
<title>HeaderPageModule&#45;&gt;RestaurantPageModule</title>
<path fill="none" stroke="black" d="M297,-122.11C297,-122.11 297,-140.99 297,-140.99"/>
<polygon fill="black" stroke="black" points="293.5,-140.99 297,-150.99 300.5,-140.99 293.5,-140.99"/>
</g>
<!-- RestaurantPageRoutingModule -->
<g id="node4" class="node">
<title>RestaurantPageRoutingModule</title>
<polygon fill="#8dd3c7" stroke="black" points="215.75,-122 212.75,-126 191.75,-126 188.75,-122 24.25,-122 24.25,-86 215.75,-86 215.75,-122"/>
<text text-anchor="middle" x="120" y="-99.8" font-family="Times,serif" font-size="14.00">RestaurantPageRoutingModule</text>
</g>
<!-- RestaurantPageRoutingModule&#45;&gt;RestaurantPageModule -->
<g id="edge3" class="edge">
<title>RestaurantPageRoutingModule&#45;&gt;RestaurantPageModule</title>
<path fill="none" stroke="black" d="M216.1,-104C223.72,-104 228.55,-104 228.55,-104 228.55,-104 228.55,-140.89 228.55,-140.89"/>
<polygon fill="black" stroke="black" points="225.05,-140.89 228.55,-150.89 232.05,-140.89 225.05,-140.89"/>
</g>
</g>
</svg>
