<?xml version="1.0" encoding="UTF-8" standalone="no"?>
<!DOCTYPE svg PUBLIC "-//W3C//DTD SVG 1.1//EN"
 "http://www.w3.org/Graphics/SVG/1.1/DTD/svg11.dtd">
<!-- Generated by graphviz version 2.44.1 (20200629.0846)
 -->
<!-- Title: dependencies Pages: 1 -->
<svg width="504pt" height="211pt"
 viewBox="0.00 0.00 504.00 211.00" xmlns="http://www.w3.org/2000/svg" xmlns:xlink="http://www.w3.org/1999/xlink">
<g id="graph0" class="graph" transform="scale(1 1) rotate(0) translate(4 207)">
<title>dependencies</title>
<polygon fill="white" stroke="transparent" points="-4,4 -4,-207 500,-207 500,4 -4,4"/>
<text text-anchor="start" x="227.01" y="-42.4" font-family="sans-serif" font-weight="bold" font-size="14.00">Legend</text>
<polygon fill="#ffffb3" stroke="transparent" points="14,-10 14,-30 34,-30 34,-10 14,-10"/>
<text text-anchor="start" x="37.63" y="-15.4" font-family="sans-serif" font-size="14.00"> &#160;Declarations</text>
<polygon fill="#8dd3c7" stroke="transparent" points="127,-10 127,-30 147,-30 147,-10 127,-10"/>
<text text-anchor="start" x="150.73" y="-15.4" font-family="sans-serif" font-size="14.00"> &#160;Module</text>
<polygon fill="#80b1d3" stroke="transparent" points="213,-10 213,-30 233,-30 233,-10 213,-10"/>
<text text-anchor="start" x="236.78" y="-15.4" font-family="sans-serif" font-size="14.00"> &#160;Bootstrap</text>
<polygon fill="#fdb462" stroke="transparent" points="310,-10 310,-30 330,-30 330,-10 310,-10"/>
<text text-anchor="start" x="333.67" y="-15.4" font-family="sans-serif" font-size="14.00"> &#160;Providers</text>
<polygon fill="#fb8072" stroke="transparent" points="406,-10 406,-30 426,-30 426,-10 406,-10"/>
<text text-anchor="start" x="429.73" y="-15.4" font-family="sans-serif" font-size="14.00"> &#160;Exports</text>
<g id="clust1" class="cluster">
<title>cluster_HomePageModule</title>
<polygon fill="none" stroke="black" stroke-dasharray="1,5" points="25,-70 25,-195 471,-195 471,-70 25,-70"/>
</g>
<g id="clust2" class="cluster">
<title>cluster_HomePageModule_declarations</title>
<polygon fill="none" stroke="black" points="369,-78 369,-130 463,-130 463,-78 369,-78"/>
</g>
<g id="clust4" class="cluster">
<title>cluster_HomePageModule_imports</title>
<polygon fill="none" stroke="black" points="33,-78 33,-130 361,-130 361,-78 33,-78"/>
</g>
<!-- HomePage -->
<g id="node1" class="node">
<title>HomePage</title>
<polygon fill="#ffffb3" stroke="black" points="454.92,-122 377.08,-122 377.08,-86 454.92,-86 454.92,-122"/>
<text text-anchor="middle" x="416" y="-99.8" font-family="Times,serif" font-size="14.00">HomePage</text>
</g>
<!-- HomePageModule -->
<g id="node2" class="node">
<title>HomePageModule</title>
<polygon fill="#8dd3c7" stroke="black" points="349.47,-187 346.47,-191 325.47,-191 322.47,-187 228.53,-187 228.53,-151 349.47,-151 349.47,-187"/>
<text text-anchor="middle" x="289" y="-164.8" font-family="Times,serif" font-size="14.00">HomePageModule</text>
</g>
<!-- HomePage&#45;&gt;HomePageModule -->
<g id="edge1" class="edge">
<title>HomePage&#45;&gt;HomePageModule</title>
<path fill="none" stroke="black" d="M416,-122.11C416,-141.34 416,-169 416,-169 416,-169 359.52,-169 359.52,-169"/>
<polygon fill="black" stroke="black" points="359.52,-165.5 349.52,-169 359.52,-172.5 359.52,-165.5"/>
</g>
<!-- HeaderPageModule -->
<g id="node3" class="node">
<title>HeaderPageModule</title>
<polygon fill="#8dd3c7" stroke="black" points="352.67,-122 349.67,-126 328.67,-126 325.67,-122 225.33,-122 225.33,-86 352.67,-86 352.67,-122"/>
<text text-anchor="middle" x="289" y="-99.8" font-family="Times,serif" font-size="14.00">HeaderPageModule</text>
</g>
<!-- HeaderPageModule&#45;&gt;HomePageModule -->
<g id="edge2" class="edge">
<title>HeaderPageModule&#45;&gt;HomePageModule</title>
<path fill="none" stroke="black" d="M289,-122.11C289,-122.11 289,-140.99 289,-140.99"/>
<polygon fill="black" stroke="black" points="285.5,-140.99 289,-150.99 292.5,-140.99 285.5,-140.99"/>
</g>
<!-- HomePageRoutingModule -->
<g id="node4" class="node">
<title>HomePageRoutingModule</title>
<polygon fill="#8dd3c7" stroke="black" points="207.09,-122 204.09,-126 183.09,-126 180.09,-122 40.91,-122 40.91,-86 207.09,-86 207.09,-122"/>
<text text-anchor="middle" x="124" y="-99.8" font-family="Times,serif" font-size="14.00">HomePageRoutingModule</text>
</g>
<!-- HomePageRoutingModule&#45;&gt;HomePageModule -->
<g id="edge3" class="edge">
<title>HomePageRoutingModule&#45;&gt;HomePageModule</title>
<path fill="none" stroke="black" d="M124,-122.11C124,-141.34 124,-169 124,-169 124,-169 218.5,-169 218.5,-169"/>
<polygon fill="black" stroke="black" points="218.5,-172.5 228.5,-169 218.5,-165.5 218.5,-172.5"/>
</g>
</g>
</svg>
