<?xml version="1.0" encoding="UTF-8" standalone="no"?>
<!DOCTYPE svg PUBLIC "-//W3C//DTD SVG 1.1//EN"
 "http://www.w3.org/Graphics/SVG/1.1/DTD/svg11.dtd">
<!-- Generated by graphviz version 2.44.1 (20200629.0846)
 -->
<!-- Title: dependencies Pages: 1 -->
<svg width="504pt" height="211pt"
 viewBox="0.00 0.00 504.00 211.00" xmlns="http://www.w3.org/2000/svg" xmlns:xlink="http://www.w3.org/1999/xlink">
<g id="graph0" class="graph" transform="scale(1 1) rotate(0) translate(4 207)">
<title>dependencies</title>
<polygon fill="white" stroke="transparent" points="-4,4 -4,-207 500,-207 500,4 -4,4"/>
<text text-anchor="start" x="227.01" y="-42.4" font-family="sans-serif" font-weight="bold" font-size="14.00">Legend</text>
<polygon fill="#ffffb3" stroke="transparent" points="14,-10 14,-30 34,-30 34,-10 14,-10"/>
<text text-anchor="start" x="37.63" y="-15.4" font-family="sans-serif" font-size="14.00"> &#160;Declarations</text>
<polygon fill="#8dd3c7" stroke="transparent" points="127,-10 127,-30 147,-30 147,-10 127,-10"/>
<text text-anchor="start" x="150.73" y="-15.4" font-family="sans-serif" font-size="14.00"> &#160;Module</text>
<polygon fill="#80b1d3" stroke="transparent" points="213,-10 213,-30 233,-30 233,-10 213,-10"/>
<text text-anchor="start" x="236.78" y="-15.4" font-family="sans-serif" font-size="14.00"> &#160;Bootstrap</text>
<polygon fill="#fdb462" stroke="transparent" points="310,-10 310,-30 330,-30 330,-10 310,-10"/>
<text text-anchor="start" x="333.67" y="-15.4" font-family="sans-serif" font-size="14.00"> &#160;Providers</text>
<polygon fill="#fb8072" stroke="transparent" points="406,-10 406,-30 426,-30 426,-10 406,-10"/>
<text text-anchor="start" x="429.73" y="-15.4" font-family="sans-serif" font-size="14.00"> &#160;Exports</text>
<g id="clust1" class="cluster">
<title>cluster_ProductSinglePageModule</title>
<polygon fill="none" stroke="black" stroke-dasharray="1,5" points="53,-70 53,-195 443,-195 443,-70 53,-70"/>
</g>
<g id="clust2" class="cluster">
<title>cluster_ProductSinglePageModule_declarations</title>
<polygon fill="none" stroke="black" points="297,-78 297,-130 435,-130 435,-78 297,-78"/>
</g>
<g id="clust4" class="cluster">
<title>cluster_ProductSinglePageModule_imports</title>
<polygon fill="none" stroke="black" points="61,-78 61,-130 289,-130 289,-78 61,-78"/>
</g>
<!-- ProductSinglePage -->
<g id="node1" class="node">
<title>ProductSinglePage</title>
<polygon fill="#ffffb3" stroke="black" points="427.04,-122 304.96,-122 304.96,-86 427.04,-86 427.04,-122"/>
<text text-anchor="middle" x="366" y="-99.8" font-family="Times,serif" font-size="14.00">ProductSinglePage</text>
</g>
<!-- ProductSinglePageModule -->
<g id="node2" class="node">
<title>ProductSinglePageModule</title>
<polygon fill="#8dd3c7" stroke="black" points="346.09,-187 343.09,-191 322.09,-191 319.09,-187 179.91,-187 179.91,-151 346.09,-151 346.09,-187"/>
<text text-anchor="middle" x="263" y="-164.8" font-family="Times,serif" font-size="14.00">ProductSinglePageModule</text>
</g>
<!-- ProductSinglePage&#45;&gt;ProductSinglePageModule -->
<g id="edge1" class="edge">
<title>ProductSinglePage&#45;&gt;ProductSinglePageModule</title>
<path fill="none" stroke="black" d="M325.39,-122.11C325.39,-122.11 325.39,-140.99 325.39,-140.99"/>
<polygon fill="black" stroke="black" points="321.89,-140.99 325.39,-150.99 328.89,-140.99 321.89,-140.99"/>
</g>
<!-- ProductSinglePageRoutingModule -->
<g id="node3" class="node">
<title>ProductSinglePageRoutingModule</title>
<polygon fill="#8dd3c7" stroke="black" points="280.71,-122 277.71,-126 256.71,-126 253.71,-122 69.29,-122 69.29,-86 280.71,-86 280.71,-122"/>
<text text-anchor="middle" x="175" y="-99.8" font-family="Times,serif" font-size="14.00">ProductSinglePageRoutingModule</text>
</g>
<!-- ProductSinglePageRoutingModule&#45;&gt;ProductSinglePageModule -->
<g id="edge2" class="edge">
<title>ProductSinglePageRoutingModule&#45;&gt;ProductSinglePageModule</title>
<path fill="none" stroke="black" d="M230.28,-122.11C230.28,-122.11 230.28,-140.99 230.28,-140.99"/>
<polygon fill="black" stroke="black" points="226.78,-140.99 230.28,-150.99 233.78,-140.99 226.78,-140.99"/>
</g>
</g>
</svg>
